<svg width="20" height="20" viewBox="0 0 20 20" fill="none" xmlns="http://www.w3.org/2000/svg">
<path d="M18.1245 8.75C18.1231 10.0756 17.5958 11.3466 16.6585 12.2839C15.7211 13.2213 14.4502 13.7486 13.1245 13.75L4.00811 13.75L6.6917 16.4328C6.80898 16.5501 6.87486 16.7091 6.87486 16.875C6.87486 17.0409 6.80898 17.1999 6.6917 17.3172C6.57443 17.4345 6.41537 17.5003 6.24952 17.5003C6.08366 17.5003 5.9246 17.4345 5.80733 17.3172L2.05733 13.5672C1.99922 13.5091 1.95312 13.4402 1.92167 13.3643C1.89021 13.2885 1.87402 13.2071 1.87402 13.125C1.87402 13.0429 1.89021 12.9615 1.92167 12.8857C1.95312 12.8098 1.99922 12.7409 2.05733 12.6828L5.80733 8.93281C5.9246 8.81554 6.08366 8.74965 6.24952 8.74965C6.41537 8.74965 6.57443 8.81554 6.6917 8.93281C6.80898 9.05009 6.87486 9.20915 6.87486 9.375C6.87486 9.54085 6.80898 9.69991 6.6917 9.81719L4.00811 12.5L13.1245 12.5C14.1191 12.5 15.0729 12.1049 15.7762 11.4017C16.4794 10.6984 16.8745 9.74456 16.8745 8.75C16.8745 7.75544 16.4794 6.80161 15.7762 6.09835C15.0729 5.39509 14.1191 5 13.1245 5L6.24952 5C6.08376 5 5.92478 4.93415 5.80757 4.81694C5.69036 4.69973 5.62452 4.54076 5.62452 4.375C5.62452 4.20924 5.69036 4.05027 5.80757 3.93306C5.92478 3.81585 6.08376 3.75 6.24952 3.75L13.1245 3.75C14.4502 3.75145 15.7211 4.2787 16.6585 5.21607C17.5958 6.15343 18.1231 7.42436 18.1245 8.75Z" fill="white"/>
</svg>
