<svg width="10" height="14" viewBox="0 0 10 14" fill="none" xmlns="http://www.w3.org/2000/svg">
<path d="M2.19922 7.0001C2.09313 7.0001 1.99139 7.04224 1.91638 7.11725C1.84136 7.19227 1.79922 7.29401 1.79922 7.4001C1.79922 7.50618 1.84136 7.60793 1.91638 7.68294C1.99139 7.75796 2.09313 7.8001 2.19922 7.8001H7.79922C7.90531 7.8001 8.00705 7.75796 8.08206 7.68294C8.15708 7.60793 8.19922 7.50618 8.19922 7.4001C8.19922 7.29401 8.15708 7.19227 8.08206 7.11725C8.00705 7.04224 7.90531 7.0001 7.79922 7.0001H2.19922ZM2.19922 8.6001C2.09313 8.6001 1.99139 8.64224 1.91638 8.71725C1.84136 8.79227 1.79922 8.89401 1.79922 9.0001C1.79922 9.10618 1.84136 9.20793 1.91638 9.28294C1.99139 9.35795 2.09313 9.4001 2.19922 9.4001H7.79922C7.90531 9.4001 8.00705 9.35795 8.08206 9.28294C8.15708 9.20793 8.19922 9.10618 8.19922 9.0001C8.19922 8.89401 8.15708 8.79227 8.08206 8.71725C8.00705 8.64224 7.90531 8.6001 7.79922 8.6001H2.19922ZM2.19922 10.2001C2.09313 10.2001 1.99139 10.2422 1.91638 10.3173C1.84136 10.3923 1.79922 10.494 1.79922 10.6001C1.79922 10.7062 1.84136 10.8079 1.91638 10.8829C1.99139 10.958 2.09313 11.0001 2.19922 11.0001H7.79922C7.90531 11.0001 8.00705 10.958 8.08206 10.8829C8.15708 10.8079 8.19922 10.7062 8.19922 10.6001C8.19922 10.494 8.15708 10.3923 8.08206 10.3173C8.00705 10.2422 7.90531 10.2001 7.79922 10.2001H2.19922ZM0.199219 2.2001C0.199219 1.77575 0.36779 1.36878 0.667848 1.06873C0.967906 0.768669 1.37487 0.600098 1.79922 0.600098H5.46802C5.78617 0.600378 6.09119 0.72699 6.31602 0.952098L9.44802 4.0833C9.67283 4.30826 9.79915 4.61326 9.79922 4.9313V11.8001C9.79922 12.2244 9.63065 12.6314 9.33059 12.9315C9.03053 13.2315 8.62357 13.4001 8.19922 13.4001H1.79922C1.37487 13.4001 0.967906 13.2315 0.667848 12.9315C0.36779 12.6314 0.199219 12.2244 0.199219 11.8001V2.2001ZM1.79922 1.4001C1.58705 1.4001 1.38356 1.48438 1.23353 1.63441C1.0835 1.78444 0.999219 1.98792 0.999219 2.2001V11.8001C0.999219 12.0123 1.0835 12.2158 1.23353 12.3658C1.38356 12.5158 1.58705 12.6001 1.79922 12.6001H8.19922C8.41139 12.6001 8.61487 12.5158 8.7649 12.3658C8.91493 12.2158 8.99922 12.0123 8.99922 11.8001V5.4001H6.19922C5.88096 5.4001 5.57573 5.27367 5.35069 5.04863C5.12565 4.82358 4.99922 4.51836 4.99922 4.2001V1.4001H1.79922ZM6.19922 4.6001H8.83362L5.79922 1.5657V4.2001C5.79922 4.30618 5.84136 4.40793 5.91638 4.48294C5.99139 4.55795 6.09313 4.6001 6.19922 4.6001Z" fill="white"/>
</svg>
