<svg width="14" height="16" viewBox="0 0 14 16" fill="none" xmlns="http://www.w3.org/2000/svg">
<path d="M1 6.66634C1 4.15234 1 2.89501 1.78133 2.11434C2.562 1.33301 3.81933 1.33301 6.33333 1.33301H7.66667C10.1807 1.33301 11.438 1.33301 12.2187 2.11434C13 2.89501 13 4.15234 13 6.66634V9.33301C13 11.847 13 13.1043 12.2187 13.885C11.438 14.6663 10.1807 14.6663 7.66667 14.6663H6.33333C3.81933 14.6663 2.562 14.6663 1.78133 13.885C1 13.1043 1 11.847 1 9.33301V6.66634Z" stroke="#6186A0"/>
<path d="M4.33398 6.66602H9.66732M4.33398 9.33268H7.66732" stroke="#6186A0" stroke-linecap="round"/>
</svg>
