<svg width="16" height="12" viewBox="0 0 16 12" fill="none" xmlns="http://www.w3.org/2000/svg">
<path d="M9.33747 0.666992H6.66414C4.14414 0.666992 2.88414 0.666992 2.1008 1.44833C1.5608 1.98566 1.39347 2.74899 1.3408 3.99299C1.3308 4.23966 1.32547 4.36366 1.37147 4.44566C1.41814 4.52766 1.60147 4.63099 1.96947 4.83633C2.17676 4.95189 2.34943 5.12071 2.46963 5.32534C2.58984 5.52998 2.65321 5.763 2.65321 6.00033C2.65321 6.23765 2.58984 6.47067 2.46963 6.67531C2.34943 6.87994 2.17676 7.04876 1.96947 7.16433C1.60147 7.37033 1.41747 7.47299 1.37147 7.55499C1.32547 7.63699 1.3308 7.76033 1.34147 8.00699C1.39347 9.25166 1.56147 10.015 2.1008 10.5523C2.88347 11.3337 4.14347 11.3337 6.66414 11.3337H9.33747C11.8575 11.3337 13.1175 11.3337 13.9008 10.5523C14.4408 10.015 14.6081 9.25166 14.6608 8.00766C14.6708 7.76099 14.6761 7.63699 14.6301 7.55499C14.5835 7.47299 14.4001 7.37033 14.0321 7.16433C13.8248 7.04876 13.6522 6.87994 13.532 6.67531C13.4118 6.47067 13.3484 6.23765 13.3484 6.00033C13.3484 5.763 13.4118 5.52998 13.532 5.32534C13.6522 5.12071 13.8248 4.95189 14.0321 4.83633C14.4001 4.63099 14.5841 4.52766 14.6301 4.44566C14.6761 4.36366 14.6708 4.24033 14.6601 3.99299C14.6081 2.74899 14.4401 1.98633 13.9008 1.44833C13.1181 0.666992 11.8581 0.666992 9.33747 0.666992Z" stroke="#6186A0"/>
<path d="M6 8L10 4" stroke="#6186A0" stroke-linecap="round"/>
<path d="M10.3346 7.66699C10.3346 7.8438 10.2644 8.01337 10.1394 8.1384C10.0143 8.26342 9.84478 8.33366 9.66797 8.33366C9.49116 8.33366 9.32159 8.26342 9.19656 8.1384C9.07154 8.01337 9.0013 7.8438 9.0013 7.66699C9.0013 7.49018 9.07154 7.32061 9.19656 7.19559C9.32159 7.07056 9.49116 7.00033 9.66797 7.00033C9.84478 7.00033 10.0143 7.07056 10.1394 7.19559C10.2644 7.32061 10.3346 7.49018 10.3346 7.66699ZM7.0013 4.33366C7.0013 4.51047 6.93106 4.68004 6.80604 4.80506C6.68102 4.93009 6.51145 5.00033 6.33464 5.00033C6.15782 5.00033 5.98826 4.93009 5.86323 4.80506C5.73821 4.68004 5.66797 4.51047 5.66797 4.33366C5.66797 4.15685 5.73821 3.98728 5.86323 3.86225C5.98826 3.73723 6.15782 3.66699 6.33464 3.66699C6.51145 3.66699 6.68102 3.73723 6.80604 3.86225C6.93106 3.98728 7.0013 4.15685 7.0013 4.33366Z" fill="#6186A0"/>
</svg>
