<svg width="21" height="22" viewBox="0 0 21 22" fill="none" xmlns="http://www.w3.org/2000/svg">
<path d="M10.4286 1.85742L11.0799 1.06135L10.4286 0.528445L9.77724 1.06135L10.4286 1.85742ZM4.6 11.5717V10.5431H2.54286V11.5717H4.6ZM18.3143 11.5717V10.5431H16.2571V11.5717H18.3143ZM8.65306 15.337V14.3084H7.62449V15.337H8.65306ZM12.2041 15.337H13.2327V14.3084H12.2041V15.337ZM1.65133 10.3678L11.0799 2.65349L9.77724 1.06135L0.34867 8.77564L1.65133 10.3678ZM9.77724 2.65349L19.2058 10.3678L20.5085 8.77564L11.0799 1.06135L9.77724 2.65349ZM2.54286 11.5717V18.4289H4.6V11.5717H2.54286ZM2.54286 18.4289C2.54286 19.9441 3.77051 21.1717 5.28571 21.1717V19.1146C4.90664 19.1146 4.6 18.8079 4.6 18.4289H2.54286ZM5.28571 21.1717H15.5714V19.1146H5.28571V21.1717ZM15.5714 21.1717C17.0866 21.1717 18.3143 19.9441 18.3143 18.4289H16.2571C16.2571 18.8079 15.9505 19.1146 15.5714 19.1146V21.1717ZM18.3143 18.4289V11.5717H16.2571V18.4289H18.3143ZM9.68163 20.5411V15.337H7.62449V20.5411H9.68163ZM8.65306 16.3656H12.2041V14.3084H8.65306V16.3656ZM11.1755 15.337V20.5411H13.2327V15.337H11.1755Z" fill="#565E6C"/>
</svg>
