<?xml version="1.0" standalone="no"?>
<!DOCTYPE svg PUBLIC "-//W3C//DTD SVG 20010904//EN"
 "http://www.w3.org/TR/2001/REC-SVG-20010904/DTD/svg10.dtd">
<svg version="1.0" xmlns="http://www.w3.org/2000/svg"
 width="500.000000pt" height="500.000000pt" viewBox="0 0 500.000000 500.000000"
 preserveAspectRatio="xMidYMid meet">

<g transform="translate(0.000000,500.000000) scale(0.100000,-0.100000)"
fill="#000000" stroke="none">
<path d="M1141 4359 c-186 -24 -350 -107 -482 -245 -110 -116 -168 -216 -211
-369 l-23 -80 0 -1165 0 -1165 23 -80 c95 -336 363 -570 704 -615 56 -8 246
-10 569 -8 551 5 560 6 734 93 208 103 360 287 426 515 17 60 22 111 26 255 6
203 -1 246 -49 301 -43 48 -83 67 -149 68 -75 1 -143 -39 -177 -106 -22 -42
-24 -64 -31 -230 -7 -178 -8 -185 -39 -251 -63 -136 -182 -220 -335 -237 -103
-12 -839 -12 -931 -1 -142 19 -285 128 -338 258 l-23 58 -3 1124 c-3 1225 -5
1178 53 1276 36 63 114 133 184 167 62 31 67 32 265 41 110 5 343 6 516 4 289
-5 320 -7 371 -26 129 -49 222 -142 258 -260 15 -51 21 -103 24 -228 5 -192
20 -236 94 -283 83 -53 170 -48 240 13 63 56 73 90 73 274 0 98 -5 190 -14
235 -68 353 -351 620 -709 668 -93 12 -951 12 -1046 -1z"/>
<path d="M3455 3513 c-95 -50 -134 -142 -103 -244 9 -31 63 -90 265 -291 139
-139 253 -258 253 -265 0 -11 -229 -13 -1225 -13 -1330 0 -1264 3 -1323 -53
-110 -102 -66 -297 76 -337 24 -6 448 -10 1255 -10 830 0 1217 -3 1217 -10 0
-6 -110 -122 -245 -258 -134 -136 -252 -257 -260 -269 -22 -32 -30 -113 -15
-157 36 -111 172 -169 277 -119 46 22 912 888 929 930 18 42 18 125 0 168 -20
46 -878 905 -928 928 -45 21 -133 21 -173 0z"/>
</g>
</svg>
