<svg width="14" height="14" viewBox="0 0 14 14" fill="none" xmlns="http://www.w3.org/2000/svg">
<path fill-rule="evenodd" clip-rule="evenodd" d="M1.98641 0.0664062H1.93307C1.68881 0.0664062 1.47867 0.0664063 1.29307 0.11014C1.00575 0.178795 0.743046 0.325656 0.534066 0.534448C0.325085 0.743241 0.177988 1.00581 0.109073 1.29307C0.0664062 1.47867 0.0664062 1.68774 0.0664062 1.93307V4.59974C0.0664062 4.84401 0.0664063 5.05414 0.11014 5.23974C0.178795 5.52706 0.325656 5.78977 0.534448 5.99875C0.743241 6.20773 1.00581 6.35483 1.29307 6.42374C1.47867 6.46641 1.68774 6.46641 1.93307 6.46641H4.59974C4.84401 6.46641 5.05414 6.46641 5.23974 6.42267C5.52706 6.35402 5.78977 6.20716 5.99875 5.99836C6.20773 5.78957 6.35483 5.527 6.42374 5.23974C6.46641 5.05414 6.46641 4.84507 6.46641 4.59974V1.93307C6.46641 1.68881 6.46641 1.47867 6.42267 1.29307C6.35402 1.00575 6.20716 0.743046 5.99836 0.534066C5.78957 0.325085 5.527 0.177988 5.23974 0.109073C5.05414 0.0664062 4.84507 0.0664062 4.59974 0.0664062H1.98641ZM1.54161 1.14801C1.58747 1.13734 1.65894 1.13307 1.98641 1.13307H4.54641C4.87494 1.13307 4.94534 1.13627 4.99121 1.14801C5.08703 1.17092 5.17462 1.21993 5.24429 1.28959C5.31395 1.35926 5.36296 1.44685 5.38587 1.54267C5.39654 1.58747 5.39974 1.65787 5.39974 1.98641V4.54641C5.39974 4.87494 5.39654 4.94534 5.38481 4.99121C5.36189 5.08703 5.31289 5.17462 5.24322 5.24429C5.17356 5.31395 5.08596 5.36296 4.99014 5.38587C4.94641 5.39547 4.87601 5.39974 4.54641 5.39974H1.98641C1.65787 5.39974 1.58747 5.39654 1.54161 5.38481C1.44579 5.36189 1.35819 5.31289 1.28852 5.24322C1.21886 5.17356 1.16985 5.08596 1.14694 4.99014C1.13734 4.94641 1.13307 4.87601 1.13307 4.54641V1.98641C1.13307 1.65787 1.13627 1.58747 1.14801 1.54161C1.17092 1.44579 1.21993 1.35819 1.28959 1.28852C1.35926 1.21886 1.44685 1.16985 1.54267 1.14694L1.54161 1.14801ZM9.45307 0.0664062H9.39974C9.15547 0.0664062 8.94534 0.0664063 8.75974 0.11014C8.47242 0.178795 8.20971 0.325656 8.00073 0.534448C7.79175 0.743241 7.64465 1.00581 7.57574 1.29307C7.53307 1.47867 7.53307 1.68774 7.53307 1.93307V4.59974C7.53307 4.84401 7.53307 5.05414 7.57681 5.23974C7.64546 5.52706 7.79232 5.78977 8.00112 5.99875C8.20991 6.20773 8.47248 6.35483 8.75974 6.42374C8.94534 6.46641 9.15441 6.46641 9.39974 6.46641H12.0664C12.3107 6.46641 12.5208 6.46641 12.7064 6.42267C12.9937 6.35402 13.2564 6.20716 13.4654 5.99836C13.6744 5.78957 13.8215 5.527 13.8904 5.23974C13.9331 5.05414 13.9331 4.84507 13.9331 4.59974V1.93307C13.9331 1.68881 13.9331 1.47867 13.8893 1.29307C13.8207 1.00575 13.6738 0.743046 13.465 0.534066C13.2562 0.325085 12.9937 0.177988 12.7064 0.109073C12.5208 0.0664062 12.3117 0.0664062 12.0664 0.0664062H9.45307ZM9.00827 1.14801C9.05414 1.13734 9.12561 1.13307 9.45307 1.13307H12.0131C12.3416 1.13307 12.412 1.13627 12.4579 1.14801C12.5537 1.17092 12.6413 1.21993 12.711 1.28959C12.7806 1.35926 12.8296 1.44685 12.8525 1.54267C12.8632 1.58747 12.8664 1.65787 12.8664 1.98641V4.54641C12.8664 4.87494 12.8621 4.94534 12.8515 4.99121C12.8286 5.08703 12.7796 5.17462 12.7099 5.24429C12.6402 5.31395 12.5526 5.36296 12.4568 5.38587C12.412 5.39654 12.3416 5.39974 12.0131 5.39974H9.45307C9.12454 5.39974 9.05414 5.39654 9.00827 5.38481C8.91246 5.36189 8.82486 5.31289 8.75519 5.24322C8.68553 5.17356 8.63652 5.08596 8.61361 4.99014C8.60401 4.94641 8.59974 4.87601 8.59974 4.54641V1.98641C8.59974 1.65787 8.60294 1.58747 8.61467 1.54161C8.63759 1.44579 8.68659 1.35819 8.75626 1.28852C8.82592 1.21886 8.91352 1.16985 9.00934 1.14694L9.00827 1.14801ZM1.93307 7.53307H4.59974C4.84401 7.53307 5.05414 7.53307 5.23974 7.57681C5.52706 7.64546 5.78977 7.79232 5.99875 8.00112C6.20773 8.20991 6.35483 8.47248 6.42374 8.75974C6.46641 8.94534 6.46641 9.15441 6.46641 9.39974V12.0664C6.46641 12.3107 6.46641 12.5208 6.42267 12.7064C6.35402 12.9937 6.20716 13.2564 5.99836 13.4654C5.78957 13.6744 5.527 13.8215 5.23974 13.8904C5.05414 13.9331 4.84507 13.9331 4.59974 13.9331H1.93307C1.68881 13.9331 1.47867 13.9331 1.29307 13.8893C1.00575 13.8207 0.743046 13.6738 0.534066 13.465C0.325085 13.2562 0.177988 12.9937 0.109073 12.7064C0.0664062 12.5208 0.0664062 12.3117 0.0664062 12.0664V9.39974C0.0664062 9.15547 0.0664063 8.94534 0.11014 8.75974C0.178795 8.47242 0.325656 8.20971 0.534448 8.00073C0.743241 7.79175 1.00581 7.64465 1.29307 7.57574C1.47867 7.53307 1.68774 7.53307 1.93307 7.53307ZM1.98641 8.59974C1.65787 8.59974 1.58747 8.60294 1.54161 8.61467C1.44579 8.63759 1.35819 8.68659 1.28852 8.75626C1.21886 8.82592 1.16985 8.91352 1.14694 9.00934C1.13734 9.05307 1.13307 9.12347 1.13307 9.45307V12.0131C1.13307 12.3416 1.13627 12.412 1.14801 12.4579C1.17092 12.5537 1.21993 12.6413 1.28959 12.711C1.35926 12.7806 1.44685 12.8296 1.54267 12.8525C1.58747 12.8632 1.65787 12.8664 1.98641 12.8664H4.54641C4.87494 12.8664 4.94534 12.8621 4.99121 12.8515C5.08703 12.8286 5.17462 12.7796 5.24429 12.7099C5.31395 12.6402 5.36296 12.5526 5.38587 12.4568C5.39654 12.412 5.39974 12.3416 5.39974 12.0131V9.45307C5.39974 9.12454 5.39654 9.05414 5.38481 9.00827C5.36189 8.91246 5.31289 8.82486 5.24322 8.75519C5.17356 8.68553 5.08596 8.63652 4.99014 8.61361C4.94641 8.60401 4.87601 8.59974 4.54641 8.59974H1.98641ZM9.45307 7.53307H9.39974C9.15547 7.53307 8.94534 7.53307 8.75974 7.57681C8.47242 7.64546 8.20971 7.79232 8.00073 8.00112C7.79175 8.20991 7.64465 8.47248 7.57574 8.75974C7.53307 8.94534 7.53307 9.15441 7.53307 9.39974V12.0664C7.53307 12.3107 7.53307 12.5208 7.57681 12.7064C7.64546 12.9937 7.79232 13.2564 8.00112 13.4654C8.20991 13.6744 8.47248 13.8215 8.75974 13.8904C8.94534 13.9341 9.15547 13.9341 9.39974 13.9341H12.0664C12.3107 13.9341 12.5208 13.9341 12.7064 13.8904C12.9935 13.8216 13.256 13.6746 13.4648 13.4659C13.6736 13.2571 13.8205 12.9946 13.8893 12.7075C13.9331 12.5219 13.9331 12.3117 13.9331 12.0675V9.39974C13.9331 9.15547 13.9331 8.94534 13.8893 8.75974C13.8207 8.47242 13.6738 8.20971 13.465 8.00073C13.2562 7.79175 12.9937 7.64465 12.7064 7.57574C12.5208 7.53307 12.3117 7.53307 12.0664 7.53307H9.45307ZM9.00827 8.61467C9.05414 8.60401 9.12561 8.59974 9.45307 8.59974H12.0131C12.3416 8.59974 12.412 8.60294 12.4579 8.61467C12.5537 8.63759 12.6413 8.68659 12.711 8.75626C12.7806 8.82592 12.8296 8.91352 12.8525 9.00934C12.8632 9.05414 12.8664 9.12454 12.8664 9.45307V12.0131C12.8664 12.3416 12.8621 12.412 12.8515 12.4579C12.8286 12.5537 12.7796 12.6413 12.7099 12.711C12.6402 12.7806 12.5526 12.8296 12.4568 12.8525C12.412 12.8632 12.3416 12.8664 12.0131 12.8664H9.45307C9.12454 12.8664 9.05414 12.8621 9.00827 12.8515C8.91246 12.8286 8.82486 12.7796 8.75519 12.7099C8.68553 12.6402 8.63652 12.5526 8.61361 12.4568C8.60401 12.4131 8.59974 12.3427 8.59974 12.0131V9.45307C8.59974 9.12454 8.60294 9.05414 8.61467 9.00827C8.63759 8.91246 8.68659 8.82486 8.75626 8.75519C8.82592 8.68553 8.91352 8.63652 9.00934 8.61361L9.00827 8.61467Z" fill="#6186A0"/>
</svg>
