<svg width="12" height="12" viewBox="0 0 12 12" fill="none" xmlns="http://www.w3.org/2000/svg">
<path d="M0.95 3.66667V3.71667H1H3.66667H3.71667V3.66667V1V0.95H3.66667H2.16667C1.84399 0.95 1.53452 1.07818 1.30635 1.30635C1.07818 1.53452 0.95 1.84399 0.95 2.16667V3.66667ZM1 4.61667H0.95V4.66667V7.33333V7.38333H1H3.66667H3.71667V7.33333V4.66667V4.61667H3.66667H1ZM4.66667 4.61667H4.61667V4.66667V7.33333V7.38333H4.66667H7.33333H7.38333V7.33333V4.66667V4.61667H7.33333H4.66667ZM8.33333 4.61667H8.28333V4.66667V7.33333V7.38333H8.33333H11H11.05V7.33333V4.66667V4.61667H11H8.33333ZM7.38333 8.33333V8.28333H7.33333H4.66667H4.61667V8.33333V11V11.05H4.66667H7.33333H7.38333V11V8.33333ZM8.28333 11V11.05H8.33333H9.83333C10.156 11.05 10.4655 10.9218 10.6936 10.6936C10.9218 10.4655 11.05 10.156 11.05 9.83333V8.33333V8.28333H11H8.33333H8.28333V8.33333V11ZM8.28333 3.66667V3.71667H8.33333H11H11.05V3.66667V2.16667C11.05 1.84399 10.9218 1.53452 10.6936 1.30635C10.4655 1.07818 10.156 0.95 9.83333 0.95H8.33333H8.28333V1V3.66667ZM7.38333 1V0.95H7.33333H4.66667H4.61667V1V3.66667V3.71667H4.66667H7.33333H7.38333V3.66667V1ZM1 8.28333H0.95V8.33333V9.83333C0.95 10.5049 1.49505 11.05 2.16667 11.05H3.66667H3.71667V11V8.33333V8.28333H3.66667H1ZM0.05 2.16667C0.05 1.60529 0.273005 1.06691 0.669957 0.669957C1.06691 0.273005 1.60529 0.05 2.16667 0.05H9.83333C10.3947 0.05 10.9331 0.273005 11.33 0.669957C11.727 1.06691 11.95 1.60529 11.95 2.16667V9.83333C11.95 10.3947 11.727 10.9331 11.33 11.33C10.9331 11.727 10.3947 11.95 9.83333 11.95H2.16667C1.60529 11.95 1.06691 11.727 0.669957 11.33C0.273005 10.9331 0.05 10.3947 0.05 9.83333V2.16667Z" fill="white" stroke="#00BDD6" stroke-width="0.1"/>
</svg>
