<svg width="16" height="16" viewBox="0 0 16 16" fill="none" xmlns="http://www.w3.org/2000/svg">
<path fill-rule="evenodd" clip-rule="evenodd" d="M2.98641 1.06641H2.93307C2.68881 1.06641 2.47867 1.06641 2.29307 1.11014C2.00575 1.1788 1.74305 1.32566 1.53407 1.53445C1.32508 1.74324 1.17799 2.00581 1.10907 2.29307C1.06641 2.47867 1.06641 2.68774 1.06641 2.93307V5.59974C1.06641 5.84401 1.06641 6.05414 1.11014 6.23974C1.1788 6.52706 1.32566 6.78977 1.53445 6.99875C1.74324 7.20773 2.00581 7.35483 2.29307 7.42374C2.47867 7.46641 2.68774 7.46641 2.93307 7.46641H5.59974C5.84401 7.46641 6.05414 7.46641 6.23974 7.42267C6.52706 7.35402 6.78977 7.20716 6.99875 6.99836C7.20773 6.78957 7.35483 6.527 7.42374 6.23974C7.46641 6.05414 7.46641 5.84507 7.46641 5.59974V2.93307C7.46641 2.68881 7.46641 2.47867 7.42267 2.29307C7.35402 2.00575 7.20716 1.74305 6.99836 1.53407C6.78957 1.32508 6.527 1.17799 6.23974 1.10907C6.05414 1.06641 5.84507 1.06641 5.59974 1.06641H2.98641ZM2.54161 2.14801C2.58747 2.13734 2.65894 2.13307 2.98641 2.13307H5.54641C5.87494 2.13307 5.94534 2.13627 5.99121 2.14801C6.08703 2.17092 6.17462 2.21993 6.24429 2.28959C6.31395 2.35926 6.36296 2.44685 6.38587 2.54267C6.39654 2.58747 6.39974 2.65787 6.39974 2.98641V5.54641C6.39974 5.87494 6.39654 5.94534 6.38481 5.99121C6.36189 6.08703 6.31289 6.17462 6.24322 6.24429C6.17356 6.31395 6.08596 6.36296 5.99014 6.38587C5.94641 6.39547 5.87601 6.39974 5.54641 6.39974H2.98641C2.65787 6.39974 2.58747 6.39654 2.54161 6.38481C2.44579 6.36189 2.35819 6.31289 2.28852 6.24322C2.21886 6.17356 2.16985 6.08596 2.14694 5.99014C2.13734 5.94641 2.13307 5.87601 2.13307 5.54641V2.98641C2.13307 2.65787 2.13627 2.58747 2.14801 2.54161C2.17092 2.44579 2.21993 2.35819 2.28959 2.28852C2.35926 2.21886 2.44685 2.16985 2.54267 2.14694L2.54161 2.14801ZM10.4531 1.06641H10.3997C10.1555 1.06641 9.94534 1.06641 9.75974 1.11014C9.47242 1.1788 9.20971 1.32566 9.00073 1.53445C8.79175 1.74324 8.64465 2.00581 8.57574 2.29307C8.53307 2.47867 8.53307 2.68774 8.53307 2.93307V5.59974C8.53307 5.84401 8.53307 6.05414 8.57681 6.23974C8.64546 6.52706 8.79232 6.78977 9.00112 6.99875C9.20991 7.20773 9.47248 7.35483 9.75974 7.42374C9.94534 7.46641 10.1544 7.46641 10.3997 7.46641H13.0664C13.3107 7.46641 13.5208 7.46641 13.7064 7.42267C13.9937 7.35402 14.2564 7.20716 14.4654 6.99836C14.6744 6.78957 14.8215 6.527 14.8904 6.23974C14.9331 6.05414 14.9331 5.84507 14.9331 5.59974V2.93307C14.9331 2.68881 14.9331 2.47867 14.8893 2.29307C14.8207 2.00575 14.6738 1.74305 14.465 1.53407C14.2562 1.32508 13.9937 1.17799 13.7064 1.10907C13.5208 1.06641 13.3117 1.06641 13.0664 1.06641H10.4531ZM10.0083 2.14801C10.0541 2.13734 10.1256 2.13307 10.4531 2.13307H13.0131C13.3416 2.13307 13.412 2.13627 13.4579 2.14801C13.5537 2.17092 13.6413 2.21993 13.711 2.28959C13.7806 2.35926 13.8296 2.44685 13.8525 2.54267C13.8632 2.58747 13.8664 2.65787 13.8664 2.98641V5.54641C13.8664 5.87494 13.8621 5.94534 13.8515 5.99121C13.8286 6.08703 13.7796 6.17462 13.7099 6.24429C13.6402 6.31395 13.5526 6.36296 13.4568 6.38587C13.412 6.39654 13.3416 6.39974 13.0131 6.39974H10.4531C10.1245 6.39974 10.0541 6.39654 10.0083 6.38481C9.91246 6.36189 9.82486 6.31289 9.75519 6.24322C9.68553 6.17356 9.63652 6.08596 9.61361 5.99014C9.60401 5.94641 9.59974 5.87601 9.59974 5.54641V2.98641C9.59974 2.65787 9.60294 2.58747 9.61467 2.54161C9.63759 2.44579 9.68659 2.35819 9.75626 2.28852C9.82592 2.21886 9.91352 2.16985 10.0093 2.14694L10.0083 2.14801ZM2.93307 8.53307H5.59974C5.84401 8.53307 6.05414 8.53307 6.23974 8.57681C6.52706 8.64546 6.78977 8.79232 6.99875 9.00112C7.20773 9.20991 7.35483 9.47248 7.42374 9.75974C7.46641 9.94534 7.46641 10.1544 7.46641 10.3997V13.0664C7.46641 13.3107 7.46641 13.5208 7.42267 13.7064C7.35402 13.9937 7.20716 14.2564 6.99836 14.4654C6.78957 14.6744 6.527 14.8215 6.23974 14.8904C6.05414 14.9331 5.84507 14.9331 5.59974 14.9331H2.93307C2.68881 14.9331 2.47867 14.9331 2.29307 14.8893C2.00575 14.8207 1.74305 14.6738 1.53407 14.465C1.32508 14.2562 1.17799 13.9937 1.10907 13.7064C1.06641 13.5208 1.06641 13.3117 1.06641 13.0664V10.3997C1.06641 10.1555 1.06641 9.94534 1.11014 9.75974C1.1788 9.47242 1.32566 9.20971 1.53445 9.00073C1.74324 8.79175 2.00581 8.64465 2.29307 8.57574C2.47867 8.53307 2.68774 8.53307 2.93307 8.53307ZM2.98641 9.59974C2.65787 9.59974 2.58747 9.60294 2.54161 9.61467C2.44579 9.63759 2.35819 9.68659 2.28852 9.75626C2.21886 9.82592 2.16985 9.91352 2.14694 10.0093C2.13734 10.0531 2.13307 10.1235 2.13307 10.4531V13.0131C2.13307 13.3416 2.13627 13.412 2.14801 13.4579C2.17092 13.5537 2.21993 13.6413 2.28959 13.711C2.35926 13.7806 2.44685 13.8296 2.54267 13.8525C2.58747 13.8632 2.65787 13.8664 2.98641 13.8664H5.54641C5.87494 13.8664 5.94534 13.8621 5.99121 13.8515C6.08703 13.8286 6.17462 13.7796 6.24429 13.7099C6.31395 13.6402 6.36296 13.5526 6.38587 13.4568C6.39654 13.412 6.39974 13.3416 6.39974 13.0131V10.4531C6.39974 10.1245 6.39654 10.0541 6.38481 10.0083C6.36189 9.91246 6.31289 9.82486 6.24322 9.75519C6.17356 9.68553 6.08596 9.63652 5.99014 9.61361C5.94641 9.60401 5.87601 9.59974 5.54641 9.59974H2.98641ZM10.4531 8.53307H10.3997C10.1555 8.53307 9.94534 8.53307 9.75974 8.57681C9.47242 8.64546 9.20971 8.79232 9.00073 9.00112C8.79175 9.20991 8.64465 9.47248 8.57574 9.75974C8.53307 9.94534 8.53307 10.1544 8.53307 10.3997V13.0664C8.53307 13.3107 8.53307 13.5208 8.57681 13.7064C8.64546 13.9937 8.79232 14.2564 9.00112 14.4654C9.20991 14.6744 9.47248 14.8215 9.75974 14.8904C9.94534 14.9341 10.1555 14.9341 10.3997 14.9341H13.0664C13.3107 14.9341 13.5208 14.9341 13.7064 14.8904C13.9935 14.8216 14.256 14.6746 14.4648 14.4659C14.6736 14.2571 14.8205 13.9946 14.8893 13.7075C14.9331 13.5219 14.9331 13.3117 14.9331 13.0675V10.3997C14.9331 10.1555 14.9331 9.94534 14.8893 9.75974C14.8207 9.47242 14.6738 9.20971 14.465 9.00073C14.2562 8.79175 13.9937 8.64465 13.7064 8.57574C13.5208 8.53307 13.3117 8.53307 13.0664 8.53307H10.4531ZM10.0083 9.61467C10.0541 9.60401 10.1256 9.59974 10.4531 9.59974H13.0131C13.3416 9.59974 13.412 9.60294 13.4579 9.61467C13.5537 9.63759 13.6413 9.68659 13.711 9.75626C13.7806 9.82592 13.8296 9.91352 13.8525 10.0093C13.8632 10.0541 13.8664 10.1245 13.8664 10.4531V13.0131C13.8664 13.3416 13.8621 13.412 13.8515 13.4579C13.8286 13.5537 13.7796 13.6413 13.7099 13.711C13.6402 13.7806 13.5526 13.8296 13.4568 13.8525C13.412 13.8632 13.3416 13.8664 13.0131 13.8664H10.4531C10.1245 13.8664 10.0541 13.8621 10.0083 13.8515C9.91246 13.8286 9.82486 13.7796 9.75519 13.7099C9.68553 13.6402 9.63652 13.5526 9.61361 13.4568C9.60401 13.4131 9.59974 13.3427 9.59974 13.0131V10.4531C9.59974 10.1245 9.60294 10.0541 9.61467 10.0083C9.63759 9.91246 9.68659 9.82486 9.75626 9.75519C9.82592 9.68553 9.91352 9.63652 10.0093 9.61361L10.0083 9.61467Z" fill="#00BDD6"/>
</svg>
