<svg width="230" height="230" viewBox="0 0 230 230" fill="none" xmlns="http://www.w3.org/2000/svg">
<path d="M115 0C139.286 -1.06156e-06 162.948 7.68832 182.595 21.963C202.243 36.2378 216.867 56.3661 224.372 79.463L177.342 94.7439C173.064 81.5787 164.728 70.1055 153.529 61.9689C142.33 53.8323 128.843 49.45 115 49.45L115 0Z" fill="#00BDD6"/>
<path d="M224.372 79.463C231.876 102.56 231.876 127.44 224.372 150.537C216.867 173.634 202.243 193.762 182.595 208.037C162.948 222.312 139.286 230 115 230C90.7144 230 67.0522 222.312 47.4047 208.037L76.4707 168.031C87.6697 176.168 101.157 180.55 115 180.55C128.843 180.55 142.33 176.168 153.529 168.031C164.728 159.894 173.064 148.421 177.342 135.256C181.619 122.091 181.619 107.909 177.342 94.7439L224.372 79.463Z" fill="#8353E2"/>
<path d="M47.4047 208.037C27.7572 193.762 13.1332 173.634 5.6285 150.537C-1.87617 127.44 -1.87617 102.56 5.6285 79.4631C13.1332 56.3661 27.7572 36.2378 47.4047 21.963C67.0522 7.68832 90.7144 -2.89603e-07 115 0V49.45C101.157 49.45 87.6697 53.8323 76.4707 61.9689C65.2716 70.1055 56.9359 81.5787 52.6582 94.7439C48.3806 107.909 48.3806 122.091 52.6582 135.256C56.9359 148.421 65.2716 159.894 76.4707 168.031L47.4047 208.037Z" fill="#4069E5"/>
</svg>
