<svg width="16" height="16" viewBox="0 0 16 16" fill="none" xmlns="http://www.w3.org/2000/svg">
<path d="M12.1193 5.35942L12.428 5.05009C12.6738 4.80423 13.0071 4.66608 13.3548 4.66602C13.7024 4.66595 14.0358 4.80399 14.2817 5.04976C14.5275 5.29552 14.6657 5.62889 14.6657 5.97652C14.6658 6.32415 14.5278 6.65757 14.282 6.90342L13.9733 7.21276M12.1193 5.35942C12.1193 5.35942 12.158 6.01542 12.7373 6.59476C13.3167 7.17409 13.9733 7.21276 13.9733 7.21276M12.1193 5.35942L9.27933 8.19942C9.086 8.39142 8.99 8.48809 8.90733 8.59409C8.81 8.71942 8.72666 8.85409 8.658 8.99809C8.6 9.11942 8.55733 9.24809 8.47133 9.50609L8.196 10.3328L8.10666 10.6001M13.9733 7.21276L11.1333 10.0528C10.94 10.2461 10.844 10.3421 10.738 10.4248C10.6127 10.5221 10.478 10.6054 10.334 10.6741C10.2127 10.7321 10.084 10.7748 9.826 10.8608L8.99933 11.1361L8.732 11.2254M8.10666 10.6001L8.018 10.8681C7.99735 10.9303 7.9944 10.997 8.0095 11.0608C8.0246 11.1246 8.05714 11.1829 8.10349 11.2293C8.14984 11.2756 8.20816 11.3082 8.27195 11.3233C8.33573 11.3384 8.40246 11.3354 8.46466 11.3148L8.732 11.2254M8.10666 10.6001L8.732 11.2254" stroke="#00BDD6"/>
<path d="M5.33333 8.66634H7M5.33333 5.99967H9.66667M5.33333 11.333H6.33333M13.2187 2.11434C12.438 1.33301 11.1807 1.33301 8.66667 1.33301H7.33333C4.81933 1.33301 3.562 1.33301 2.78133 2.11434C2 2.89501 2 4.15234 2 6.66634V9.33301C2 11.847 2 13.1043 2.78133 13.885C3.562 14.6663 4.81933 14.6663 7.33333 14.6663H8.66667C11.1807 14.6663 12.438 14.6663 13.2187 13.885C13.848 13.2563 13.97 12.3197 13.994 10.6663" stroke="#00BDD6" stroke-linecap="round"/>
</svg>
