<svg width="16" height="16" viewBox="0 0 16 16" fill="none" xmlns="http://www.w3.org/2000/svg">
<path d="M11.17 1.33301H4.83C4.05733 1.33301 3.67133 1.33301 3.35933 1.44167C3.06519 1.54598 2.79904 1.71668 2.58156 1.94052C2.36408 2.16436 2.20112 2.43531 2.10533 2.73234C2 3.05367 2 3.45101 2 4.24634V13.5823C2 14.1543 2.65667 14.4583 3.072 14.0783C3.18852 13.9707 3.34135 13.9109 3.5 13.9109C3.65865 13.9109 3.81148 13.9707 3.928 14.0783L4.25 14.373C4.45414 14.5618 4.72196 14.6666 5 14.6666C5.27804 14.6666 5.54586 14.5618 5.75 14.373C5.95414 14.1842 6.22196 14.0794 6.5 14.0794C6.77804 14.0794 7.04586 14.1842 7.25 14.373C7.45414 14.5618 7.72196 14.6666 8 14.6666C8.27804 14.6666 8.54586 14.5618 8.75 14.373C8.95414 14.1842 9.22196 14.0794 9.5 14.0794C9.77804 14.0794 10.0459 14.1842 10.25 14.373C10.4541 14.5618 10.722 14.6666 11 14.6666C11.278 14.6666 11.5459 14.5618 11.75 14.373L12.072 14.0783C12.1885 13.9707 12.3413 13.9109 12.5 13.9109C12.6587 13.9109 12.8115 13.9707 12.928 14.0783C13.3433 14.4583 14 14.1543 14 13.5823V4.24634C14 3.45101 14 3.05301 13.8947 2.73301C13.799 2.43583 13.6361 2.16472 13.4186 1.94075C13.2011 1.71679 12.9349 1.546 12.6407 1.44167C12.3287 1.33301 11.9427 1.33301 11.17 1.33301Z" stroke="#6186A0"/>
<path d="M6.33398 6.93301L7.28665 7.99967L9.66732 5.33301" stroke="#6186A0" stroke-linecap="round" stroke-linejoin="round"/>
<path d="M5 10.333H11" stroke="#6186A0" stroke-linecap="round"/>
</svg>
