<svg width="36" height="36" viewBox="0 0 36 36" fill="none" xmlns="http://www.w3.org/2000/svg">
<path d="M21.5996 4.5V11.7L28.7996 11.7" stroke="#171A1F" stroke-width="2.16" stroke-miterlimit="10"/>
<path d="M28.8002 15.3L28.8002 11.7L21.6002 4.5L7.2002 4.5L7.2002 15.3" stroke="#171A1F" stroke-width="2.16" stroke-miterlimit="10" stroke-linecap="square"/>
<path d="M7.2002 27.9004L7.2002 31.5004L28.8002 31.5004V27.9004" stroke="#171A1F" stroke-width="2.16" stroke-miterlimit="10" stroke-linecap="square"/>
<path d="M13.7696 24.2999H12.2396L11.2496 22.6799L10.1696 24.2999H8.63965L10.3496 21.6899L8.72965 19.1699H10.2596L11.1596 20.7899L12.0596 19.1699H13.6796L12.0596 21.7799L13.7696 24.2999Z" fill="#171A1F"/>
<path d="M14.4004 24.2999L14.4004 19.1699H15.7504V23.2199H17.7304V24.2999H14.4004Z" fill="#171A1F"/>
<path d="M21.9595 22.7701C21.9595 23.1301 21.8695 23.4001 21.6895 23.5801C21.5095 23.7601 21.3295 24.0301 20.9695 24.1201C20.6095 24.2101 20.3395 24.3001 19.8895 24.3001C19.5295 24.3001 19.2595 24.3001 18.9895 24.2101C18.7195 24.1201 18.5395 24.1201 18.2695 23.9401V22.6801C18.5395 22.8601 18.8095 22.9501 19.0795 23.0401C19.3495 23.1301 19.6195 23.1301 19.8895 23.1301C20.0695 23.1301 20.2495 23.1301 20.3395 23.0401C20.4295 22.9501 20.5195 22.8601 20.5195 22.7701C20.5195 22.6801 20.5195 22.6801 20.4295 22.5901C20.3395 22.5001 20.3395 22.5001 20.2495 22.4101C20.1595 22.3201 19.9795 22.2301 19.5295 22.0501C19.1695 21.8701 18.8995 21.7801 18.8095 21.6001C18.7195 21.4201 18.5395 21.3301 18.4495 21.1501C18.3595 20.9701 18.3595 20.7901 18.3595 20.5201C18.3595 20.0701 18.5395 19.7101 18.8995 19.4401C19.2595 19.1701 19.7095 19.0801 20.3395 19.0801C20.8795 19.0801 21.4195 19.1701 21.9595 19.4401L21.5095 20.5201C21.0595 20.3401 20.6095 20.1601 20.2495 20.1601C20.0695 20.1601 19.9795 20.1601 19.8895 20.2501C19.7995 20.3401 19.7995 20.4301 19.7995 20.5201C19.7995 20.6101 19.8895 20.7001 19.9795 20.7901C20.0695 20.8801 20.3395 20.9701 20.7895 21.2401C21.2395 21.4201 21.5095 21.6901 21.6895 21.8701C21.8695 22.0501 21.9595 22.4101 21.9595 22.7701Z" fill="#171A1F"/>
<path d="M27.3605 24.2999H25.7405L24.7505 22.6799L23.7605 24.2999H22.2305L23.9405 21.6899L22.3205 19.1699H23.8505L24.7505 20.7899L25.6505 19.1699H27.2705L25.6505 21.7799L27.3605 24.2999Z" fill="#171A1F"/>
<path d="M31.5 15.2998L4.5 15.2998L4.5 27.8998L31.5 27.8998L31.5 15.2998Z" stroke="#171A1F" stroke-width="2.16" stroke-miterlimit="10" stroke-linecap="square"/>
</svg>
