<svg width="12" height="12" viewBox="0 0 12 12" fill="none" xmlns="http://www.w3.org/2000/svg">
<g clip-path="url(#clip0_1_4490)">
<path d="M8.99944 4.7147C9.94622 4.7147 10.7137 3.94719 10.7137 3.00042C10.7137 2.05364 9.94622 1.28613 8.99944 1.28613C8.05267 1.28613 7.28516 2.05364 7.28516 3.00042C7.28516 3.94719 8.05267 4.7147 8.99944 4.7147Z" stroke="white" stroke-width="0.857143" stroke-linecap="round" stroke-linejoin="round"/>
<path d="M2.99944 4.7147C3.94622 4.7147 4.71373 3.94719 4.71373 3.00042C4.71373 2.05364 3.94622 1.28613 2.99944 1.28613C2.05267 1.28613 1.28516 2.05364 1.28516 3.00042C1.28516 3.94719 2.05267 4.7147 2.99944 4.7147Z" stroke="white" stroke-width="0.857143" stroke-linecap="round" stroke-linejoin="round"/>
<path d="M8.99944 10.7147C9.94622 10.7147 10.7137 9.94719 10.7137 9.00042C10.7137 8.05364 9.94622 7.28613 8.99944 7.28613C8.05267 7.28613 7.28516 8.05364 7.28516 9.00042C7.28516 9.94719 8.05267 10.7147 8.99944 10.7147Z" stroke="white" stroke-width="0.857143" stroke-linecap="round" stroke-linejoin="round"/>
<path d="M2.99944 10.7147C3.94622 10.7147 4.71373 9.94719 4.71373 9.00042C4.71373 8.05364 3.94622 7.28613 2.99944 7.28613C2.05267 7.28613 1.28516 8.05364 1.28516 9.00042C1.28516 9.94719 2.05267 10.7147 2.99944 10.7147Z" stroke="white" stroke-width="0.857143" stroke-linecap="round" stroke-linejoin="round"/>
</g>
<defs>
<clipPath id="clip0_1_4490">
<rect width="12" height="12" fill="white"/>
</clipPath>
</defs>
</svg>
