<svg width="44" height="44" viewBox="0 0 44 44" fill="none" xmlns="http://www.w3.org/2000/svg">
<rect width="44" height="44" rx="4" fill="#00BDD6"/>
<path d="M15.334 18.6673H18.6673V15.334L15.334 15.334L15.334 18.6673ZM20.334 28.6673L23.6673 28.6673V25.334L20.334 25.334V28.6673ZM15.334 28.6673H18.6673L18.6673 25.334H15.334L15.334 28.6673ZM15.334 23.6673H18.6673V20.334H15.334L15.334 23.6673ZM20.334 23.6673L23.6673 23.6673L23.6673 20.334H20.334V23.6673ZM25.334 15.334V18.6673L28.6673 18.6673V15.334L25.334 15.334ZM20.334 18.6673H23.6673V15.334L20.334 15.334V18.6673ZM25.334 23.6673H28.6673L28.6673 20.334H25.334L25.334 23.6673ZM25.334 28.6673H28.6673V25.334H25.334V28.6673Z" fill="white"/>
</svg>
