<svg width="12" height="12" viewBox="0 0 12 12" fill="none" xmlns="http://www.w3.org/2000/svg">
<path d="M6.59961 1.7998C7.55439 1.7998 8.47006 2.17909 9.14519 2.85422C9.82032 3.52935 10.1996 4.44503 10.1996 5.3998" stroke="white" stroke-width="0.72" stroke-miterlimit="10" stroke-linecap="square"/>
<path d="M8.39961 5.39961C8.39961 4.92222 8.20997 4.46438 7.8724 4.12682C7.53484 3.78925 7.077 3.59961 6.59961 3.59961" stroke="white" stroke-width="0.72" stroke-miterlimit="10" stroke-linecap="square"/>
<path d="M7.4088 6.98781L6.7242 7.84371C5.66391 7.22051 4.7803 6.3369 4.1571 5.27661L5.013 4.59201C5.11327 4.51169 5.18412 4.40044 5.21452 4.27562C5.24491 4.1508 5.23312 4.01943 5.181 3.90201L4.401 2.14551C4.34507 2.0195 4.2462 1.91745 4.12202 1.85756C3.99785 1.79767 3.85644 1.78383 3.723 1.81851L2.238 2.20371C2.09941 2.23989 1.97891 2.32566 1.89935 2.44477C1.81978 2.56387 1.78667 2.70803 1.8063 2.84991C2.0669 4.70564 2.92456 6.4261 4.24964 7.75117C5.57472 9.07625 7.29517 9.93392 9.1509 10.1945C9.29274 10.2141 9.43682 10.1809 9.55586 10.1014C9.6749 10.0218 9.76062 9.90134 9.7968 9.76281L10.182 8.27781C10.2165 8.1445 10.2027 8.00325 10.1428 7.87921C10.083 7.75517 9.98113 7.65638 9.8553 7.60041L8.0988 6.82041C7.98145 6.76822 7.85012 6.75634 7.7253 6.78663C7.60048 6.81691 7.4892 6.88765 7.4088 6.98781Z" stroke="white" stroke-width="0.72" stroke-miterlimit="10" stroke-linecap="square"/>
</svg>
