<svg width="16" height="16" viewBox="0 0 16 16" fill="none" xmlns="http://www.w3.org/2000/svg">
<path d="M8.8 11.6C10.3464 11.6 11.6 10.3464 11.6 8.8C11.6 7.2536 10.3464 6 8.8 6C7.2536 6 6 7.2536 6 8.8C6 10.3464 7.2536 11.6 8.8 11.6Z" stroke="#00BDD6" stroke-width="0.8" stroke-miterlimit="10" stroke-linecap="round" stroke-linejoin="round"/>
<path d="M3.59961 6H4.39961" stroke="#00BDD6" stroke-width="0.8" stroke-miterlimit="10" stroke-linecap="round" stroke-linejoin="round"/>
<path d="M13.2 4.3998L11.6 4.3998L10.8 2.7998L6.8 2.7998L6 4.3998L2.8 4.3998C2.3584 4.3998 2 4.7582 2 5.1998L2 12.3998C2 12.8414 2.3584 13.1998 2.8 13.1998L13.2 13.1998C13.6416 13.1998 14 12.8414 14 12.3998L14 5.1998C14 4.7582 13.6416 4.3998 13.2 4.3998Z" stroke="#00BDD6" stroke-width="0.8" stroke-miterlimit="10" stroke-linecap="round" stroke-linejoin="round"/>
</svg>
