<svg width="24" height="24" viewBox="0 0 24 24" fill="none" xmlns="http://www.w3.org/2000/svg">
<path d="M6.85714 21.4291C7.33053 21.4291 7.71429 21.0454 7.71429 20.572C7.71429 20.0986 7.33053 19.7148 6.85714 19.7148C6.38376 19.7148 6 20.0986 6 20.572C6 21.0454 6.38376 21.4291 6.85714 21.4291Z" fill="#565E6C"/>
<path d="M18.8571 21.4291C19.3305 21.4291 19.7143 21.0454 19.7143 20.572C19.7143 20.0986 19.3305 19.7148 18.8571 19.7148C18.3838 19.7148 18 20.0986 18 20.572C18 21.0454 18.3838 21.4291 18.8571 21.4291Z" fill="#565E6C"/>
<path d="M6.85714 21.4291C7.33053 21.4291 7.71429 21.0454 7.71429 20.572C7.71429 20.0986 7.33053 19.7148 6.85714 19.7148C6.38376 19.7148 6 20.0986 6 20.572C6 21.0454 6.38376 21.4291 6.85714 21.4291Z" stroke="#565E6C" stroke-width="2.05714" stroke-miterlimit="10" stroke-linecap="square"/>
<path d="M18.8571 21.4291C19.3305 21.4291 19.7143 21.0454 19.7143 20.572C19.7143 20.0986 19.3305 19.7148 18.8571 19.7148C18.3838 19.7148 18 20.0986 18 20.572C18 21.0454 18.3838 21.4291 18.8571 21.4291Z" stroke="#565E6C" stroke-width="2.05714" stroke-miterlimit="10" stroke-linecap="square"/>
<path d="M2.57129 2.57227L5.14272 2.57227L5.14272 14.5723C5.14272 15.0269 5.32333 15.463 5.64482 15.7844C5.96631 16.1059 6.40235 16.2866 6.857 16.2866L20.5713 16.2866" stroke="#565E6C" stroke-width="2.05714" stroke-miterlimit="10" stroke-linecap="square"/>
<path d="M12 3.42773L12 8.57059" stroke="#565E6C" stroke-width="2.05714" stroke-miterlimit="10" stroke-linecap="square"/>
<path d="M14.5716 8.57227L12.0001 11.1437L9.42871 8.57227L14.5716 8.57227Z" fill="#565E6C"/>
<path d="M15.4283 6L19.714 6L17.9997 12.8571L5.14258 12.8571" stroke="#565E6C" stroke-width="2.05714" stroke-miterlimit="10" stroke-linecap="square"/>
<path d="M5.14258 6L8.57115 6" stroke="#565E6C" stroke-width="2.05714" stroke-miterlimit="10" stroke-linecap="square"/>
</svg>
