<svg width="58" height="58" viewBox="0 0 58 58" fill="none" xmlns="http://www.w3.org/2000/svg">
<g filter="url(#filter0_dd_1221_1242)">
<rect x="9" y="5" width="40" height="40" rx="20" fill="#54D3EC"/>
<path d="M33.5 29C34.3284 29 35 28.3284 35 27.5C35 26.6716 34.3284 26 33.5 26C32.6716 26 32 26.6716 32 27.5C32 28.3284 32.6716 29 33.5 29Z" stroke="white" stroke-width="1.2" stroke-miterlimit="10" stroke-linecap="square"/>
<path d="M24.5 29C25.3284 29 26 28.3284 26 27.5C26 26.6716 25.3284 26 24.5 26C23.6716 26 23 26.6716 23 27.5C23 28.3284 23.6716 29 24.5 29Z" stroke="white" stroke-width="1.2" stroke-miterlimit="10" stroke-linecap="square"/>
<path d="M32 24V23.5085C32 23.1535 31.814 22.827 31.5085 22.646C31.022 22.3585 30.179 22 29 22C27.806 22 26.968 22.3565 26.487 22.644C26.184 22.825 26 23.1505 26 23.5035V24H32Z" stroke="white" stroke-width="1.2" stroke-miterlimit="10" stroke-linecap="square"/>
<path d="M27.5 32.5V32.0085C27.5 31.6535 27.314 31.327 27.0085 31.146C26.522 30.8585 25.679 30.5 24.5 30.5C23.306 30.5 22.468 30.8565 21.987 31.144C21.684 31.325 21.5 31.6505 21.5 32.0035V32.5H27.5Z" stroke="white" stroke-width="1.2" stroke-miterlimit="10" stroke-linecap="square"/>
<path d="M36.5 32.5V32.0085C36.5 31.6535 36.314 31.327 36.0085 31.146C35.522 30.8585 34.679 30.5 33.5 30.5C32.306 30.5 31.468 30.8565 30.987 31.144C30.684 31.325 30.5 31.6505 30.5 32.0035V32.5H36.5Z" stroke="white" stroke-width="1.2" stroke-miterlimit="10" stroke-linecap="square"/>
<path d="M29 20.5C29.8284 20.5 30.5 19.8284 30.5 19C30.5 18.1716 29.8284 17.5 29 17.5C28.1716 17.5 27.5 18.1716 27.5 19C27.5 19.8284 28.1716 20.5 29 20.5Z" stroke="white" stroke-width="1.2" stroke-miterlimit="10" stroke-linecap="square"/>
</g>
<defs>
<filter id="filter0_dd_1221_1242" x="0" y="0" width="58" height="58" filterUnits="userSpaceOnUse" color-interpolation-filters="sRGB">
<feFlood flood-opacity="0" result="BackgroundImageFix"/>
<feColorMatrix in="SourceAlpha" type="matrix" values="0 0 0 0 0 0 0 0 0 0 0 0 0 0 0 0 0 0 127 0" result="hardAlpha"/>
<feOffset dy="4"/>
<feGaussianBlur stdDeviation="4.5"/>
<feColorMatrix type="matrix" values="0 0 0 0 0.329412 0 0 0 0 0.827451 0 0 0 0 0.92549 0 0 0 0.11 0"/>
<feBlend mode="normal" in2="BackgroundImageFix" result="effect1_dropShadow_1221_1242"/>
<feColorMatrix in="SourceAlpha" type="matrix" values="0 0 0 0 0 0 0 0 0 0 0 0 0 0 0 0 0 0 127 0" result="hardAlpha"/>
<feOffset/>
<feGaussianBlur stdDeviation="1"/>
<feColorMatrix type="matrix" values="0 0 0 0 0.329412 0 0 0 0 0.827451 0 0 0 0 0.92549 0 0 0 0.12 0"/>
<feBlend mode="normal" in2="effect1_dropShadow_1221_1242" result="effect2_dropShadow_1221_1242"/>
<feBlend mode="normal" in="SourceGraphic" in2="effect2_dropShadow_1221_1242" result="shape"/>
</filter>
</defs>
</svg>
