<svg width="283" height="284" viewBox="0 0 283 284" fill="none" xmlns="http://www.w3.org/2000/svg">
<path d="M141.5 0.5C171.382 0.499999 200.497 9.95997 224.672 27.5241C248.847 45.0882 266.84 69.8548 276.074 98.2741L141.5 142V0.5Z" fill="#00BDD6"/>
<path d="M276.074 98.2741C285.309 126.693 285.309 157.307 276.074 185.726C266.84 214.145 248.847 238.912 224.672 256.476C200.497 274.04 171.382 283.5 141.5 283.5C111.618 283.5 82.5033 274.04 58.3284 256.476L141.5 142L276.074 98.2741Z" fill="#F2BE18"/>
<path d="M58.3284 256.476C39.6548 242.909 24.5837 224.979 14.4291 204.251C4.27452 183.523 -0.655192 160.626 0.0698211 137.555C0.794835 114.485 7.15256 91.9422 18.5886 71.8926C30.0247 51.843 46.1919 34.8955 65.6805 22.5276L141.5 142L58.3284 256.476Z" fill="#F1548B"/>
<path d="M65.6805 22.5276C88.3517 8.13999 114.649 0.5 141.5 0.5V142L65.6805 22.5276Z" fill="#60AEFF"/>
</svg>
