<svg width="112" height="15" viewBox="0 0 112 15" fill="none" xmlns="http://www.w3.org/2000/svg">
<path d="M9.42614 4H8.19318C8.12027 3.64536 7.99266 3.33381 7.81037 3.06534C7.63139 2.79688 7.41264 2.5715 7.15412 2.3892C6.89891 2.2036 6.61553 2.06439 6.30398 1.97159C5.99242 1.87879 5.66761 1.83239 5.32955 1.83239C4.71307 1.83239 4.15459 1.98816 3.65412 2.29972C3.15696 2.61127 2.76089 3.07031 2.46591 3.67685C2.17424 4.28338 2.02841 5.02746 2.02841 5.90909C2.02841 6.79072 2.17424 7.5348 2.46591 8.14134C2.76089 8.74787 3.15696 9.20691 3.65412 9.51847C4.15459 9.83002 4.71307 9.9858 5.32955 9.9858C5.66761 9.9858 5.99242 9.93939 6.30398 9.84659C6.61553 9.75379 6.89891 9.61624 7.15412 9.43395C7.41264 9.24834 7.63139 9.02131 7.81037 8.75284C7.99266 8.48106 8.12027 8.16951 8.19318 7.81818H9.42614C9.33333 8.33854 9.1643 8.80421 8.91903 9.2152C8.67377 9.62618 8.36885 9.97585 8.00426 10.2642C7.63968 10.5492 7.23035 10.7663 6.77628 10.9155C6.32552 11.0646 5.84328 11.1392 5.32955 11.1392C4.46117 11.1392 3.68892 10.9271 3.01278 10.5028C2.33665 10.0786 1.80469 9.47538 1.4169 8.69318C1.02912 7.91098 0.835227 6.98295 0.835227 5.90909C0.835227 4.83523 1.02912 3.9072 1.4169 3.125C1.80469 2.3428 2.33665 1.73958 3.01278 1.31534C3.68892 0.891098 4.46117 0.678977 5.32955 0.678977C5.84328 0.678977 6.32552 0.753551 6.77628 0.902699C7.23035 1.05185 7.63968 1.2706 8.00426 1.55895C8.36885 1.84399 8.67377 2.192 8.91903 2.60298C9.1643 3.01065 9.33333 3.47633 9.42614 4ZM14.3617 11.1591C13.6723 11.1591 13.0674 10.995 12.5471 10.6669C12.03 10.3388 11.6257 9.87973 11.334 9.28977C11.0456 8.69981 10.9015 8.01042 10.9015 7.22159C10.9015 6.42614 11.0456 5.73177 11.334 5.13849C11.6257 4.54522 12.03 4.08452 12.5471 3.75639C13.0674 3.42827 13.6723 3.2642 14.3617 3.2642C15.0511 3.2642 15.6543 3.42827 16.1713 3.75639C16.6917 4.08452 17.0961 4.54522 17.3844 5.13849C17.6761 5.73177 17.8219 6.42614 17.8219 7.22159C17.8219 8.01042 17.6761 8.69981 17.3844 9.28977C17.0961 9.87973 16.6917 10.3388 16.1713 10.6669C15.6543 10.995 15.0511 11.1591 14.3617 11.1591ZM14.3617 10.1051C14.8854 10.1051 15.3162 9.97088 15.6543 9.70241C15.9924 9.43395 16.2426 9.08097 16.405 8.64347C16.5674 8.20597 16.6486 7.73201 16.6486 7.22159C16.6486 6.71117 16.5674 6.23556 16.405 5.79474C16.2426 5.35393 15.9924 4.99763 15.6543 4.72585C15.3162 4.45407 14.8854 4.31818 14.3617 4.31818C13.838 4.31818 13.4071 4.45407 13.0691 4.72585C12.731 4.99763 12.4808 5.35393 12.3184 5.79474C12.156 6.23556 12.0748 6.71117 12.0748 7.22159C12.0748 7.73201 12.156 8.20597 12.3184 8.64347C12.4808 9.08097 12.731 9.43395 13.0691 9.70241C13.4071 9.97088 13.838 10.1051 14.3617 10.1051ZM19.6129 13.8636V3.36364H20.7464V4.5767H20.8857C20.9718 4.44413 21.0911 4.27509 21.2436 4.0696C21.3994 3.8608 21.6214 3.67519 21.9098 3.51278C22.2015 3.34706 22.5959 3.2642 23.093 3.2642C23.736 3.2642 24.3028 3.42495 24.7933 3.74645C25.2839 4.06794 25.6667 4.52367 25.9418 5.11364C26.2169 5.7036 26.3544 6.39962 26.3544 7.2017C26.3544 8.01042 26.2169 8.71141 25.9418 9.30469C25.6667 9.89465 25.2855 10.352 24.7983 10.6768C24.3111 10.9983 23.7493 11.1591 23.1129 11.1591C22.6224 11.1591 22.2296 11.0779 21.9347 10.9155C21.6397 10.7498 21.4126 10.5625 21.2536 10.3537C21.0945 10.1416 20.9718 9.96591 20.8857 9.8267H20.7862V13.8636H19.6129ZM20.7663 7.18182C20.7663 7.75852 20.8509 8.26728 21.0199 8.7081C21.1889 9.1456 21.4358 9.48864 21.7607 9.73722C22.0855 9.98248 22.4832 10.1051 22.9538 10.1051C23.4444 10.1051 23.8537 9.97585 24.1818 9.71733C24.5133 9.45549 24.7618 9.10417 24.9276 8.66335C25.0966 8.21922 25.1811 7.72538 25.1811 7.18182C25.1811 6.64489 25.0982 6.16098 24.9325 5.73011C24.7701 5.29593 24.5232 4.95289 24.1918 4.70099C23.8636 4.44579 23.451 4.31818 22.9538 4.31818C22.4766 4.31818 22.0755 4.43916 21.7507 4.68111C21.4259 4.91974 21.1806 5.2545 21.0149 5.68537C20.8492 6.11293 20.7663 6.61174 20.7663 7.18182ZM28.6264 13.8636C28.4276 13.8636 28.2502 13.8471 28.0945 13.8139C27.9387 13.7841 27.831 13.7543 27.7713 13.7244L28.0696 12.6903C28.3546 12.7633 28.6065 12.7898 28.8253 12.7699C29.044 12.75 29.2379 12.6522 29.407 12.4766C29.5793 12.3042 29.7367 12.0241 29.8793 11.6364L30.098 11.0398L27.2741 3.36364H28.5469L30.6548 9.44886H30.7344L32.8423 3.36364H34.1151L30.8736 12.1136C30.7277 12.508 30.5471 12.8345 30.3317 13.093C30.1162 13.3549 29.866 13.5488 29.581 13.6747C29.2992 13.8007 28.9811 13.8636 28.6264 13.8636ZM35.6637 11L35.6637 3.36364H36.7972V4.51705H36.8768C37.016 4.1392 37.2679 3.83262 37.6325 3.5973C37.997 3.36198 38.408 3.24432 38.8654 3.24432C38.9516 3.24432 39.0593 3.24597 39.1886 3.24929C39.3178 3.2526 39.4156 3.25758 39.4819 3.2642V4.45739C39.4421 4.44744 39.351 4.43253 39.2085 4.41264C39.0692 4.38944 38.9218 4.37784 38.766 4.37784C38.3948 4.37784 38.0633 4.45573 37.7717 4.61151C37.4833 4.76397 37.2546 4.97609 37.0856 5.24787C36.9199 5.51634 36.837 5.82292 36.837 6.16761L36.837 11L35.6637 11ZM40.8727 11L40.8727 3.36364H42.046L42.046 11H40.8727ZM41.4693 2.09091C41.2406 2.09091 41.0434 2.01302 40.8777 1.85724C40.7153 1.70147 40.6341 1.5142 40.6341 1.29545C40.6341 1.0767 40.7153 0.889441 40.8777 0.733664C41.0434 0.577888 41.2406 0.5 41.4693 0.5C41.698 0.5 41.8935 0.577888 42.0559 0.733664C42.2217 0.889441 42.3045 1.0767 42.3045 1.29545C42.3045 1.5142 42.2217 1.70147 42.0559 1.85724C41.8935 2.01302 41.698 2.09091 41.4693 2.09091ZM47.2773 14.0227C46.7106 14.0227 46.2234 13.9498 45.8157 13.804C45.408 13.6615 45.0683 13.4725 44.7965 13.2372C44.5281 13.0052 44.3143 12.7566 44.1552 12.4915L45.0898 11.8352C45.1959 11.9744 45.3301 12.1335 45.4925 12.3125C45.6549 12.4948 45.877 12.6522 46.1587 12.7848C46.4438 12.9207 46.8166 12.9886 47.2773 12.9886C47.8938 12.9886 48.4026 12.8395 48.8036 12.5412C49.2047 12.2429 49.4052 11.7756 49.4052 11.1392V9.58807H49.3058C49.2196 9.72727 49.0969 9.89962 48.9379 10.1051C48.7821 10.3073 48.5567 10.4879 48.2617 10.647C47.9701 10.8028 47.5756 10.8807 47.0785 10.8807C46.462 10.8807 45.9085 10.7348 45.418 10.4432C44.9308 10.1515 44.5446 9.72727 44.2596 9.17045C43.9779 8.61364 43.837 7.9375 43.837 7.14205C43.837 6.35985 43.9746 5.67874 44.2496 5.09872C44.5247 4.51539 44.9076 4.06463 45.3981 3.74645C45.8886 3.42495 46.4554 3.2642 47.0984 3.2642C47.5955 3.2642 47.9899 3.34706 48.2816 3.51278C48.5766 3.67519 48.802 3.8608 48.9577 4.0696C49.1168 4.27509 49.2395 4.44413 49.3256 4.5767H49.445V3.36364H50.5785L50.5785 11.2188C50.5785 11.875 50.4293 12.4086 50.131 12.8196C49.8361 13.2339 49.4383 13.5372 48.9379 13.7294C48.4407 13.925 47.8872 14.0227 47.2773 14.0227ZM47.2376 9.8267C47.7082 9.8267 48.1059 9.71899 48.4308 9.50355C48.7556 9.28812 49.0025 8.97822 49.1715 8.57386C49.3406 8.16951 49.4251 7.68561 49.4251 7.12216C49.4251 6.57197 49.3422 6.08641 49.1765 5.66548C49.0108 5.24455 48.7655 4.91477 48.4407 4.67614C48.1159 4.4375 47.7148 4.31818 47.2376 4.31818C46.7404 4.31818 46.3261 4.44413 45.9947 4.69602C45.6665 4.94792 45.4196 5.28598 45.2539 5.71023C45.0915 6.13447 45.0103 6.60511 45.0103 7.12216C45.0103 7.65246 45.0932 8.12145 45.2589 8.52912C45.4279 8.93348 45.6765 9.25166 46.0046 9.48366C46.3361 9.71236 46.747 9.8267 47.2376 9.8267ZM53.8995 6.40625L53.8995 11H52.7262L52.7262 0.818182H53.8995V4.55682H53.9989C54.1779 4.16241 54.4464 3.84919 54.8043 3.61719C55.1656 3.38187 55.6462 3.2642 56.2461 3.2642C56.7665 3.2642 57.2222 3.36861 57.6133 3.57741C58.0044 3.78291 58.3076 4.09943 58.5231 4.52699C58.7418 4.95123 58.8512 5.49148 58.8512 6.14773L58.8512 11H57.6779L57.6779 6.22727C57.6779 5.62074 57.5205 5.15175 57.2056 4.82031C56.8941 4.48556 56.4615 4.31818 55.908 4.31818C55.5236 4.31818 55.1789 4.39938 54.8739 4.56179C54.5723 4.72419 54.3337 4.96117 54.158 5.27273C53.9857 5.58428 53.8995 5.96212 53.8995 6.40625ZM64.3187 3.36364V4.35795L60.3613 4.35795V3.36364L64.3187 3.36364ZM61.5147 1.53409H62.688V8.8125C62.688 9.14394 62.7361 9.39252 62.8322 9.55824C62.9316 9.72064 63.0576 9.83002 63.21 9.88636C63.3658 9.93939 63.5299 9.96591 63.7022 9.96591C63.8315 9.96591 63.9376 9.95928 64.0204 9.94602C64.1033 9.92945 64.1696 9.91619 64.2193 9.90625L64.4579 10.9602C64.3784 10.9901 64.2673 11.0199 64.1248 11.0497C63.9823 11.0829 63.8017 11.0994 63.5829 11.0994C63.2515 11.0994 62.9267 11.0282 62.6085 10.8857C62.2936 10.7431 62.0318 10.526 61.823 10.2344C61.6175 9.94271 61.5147 9.57481 61.5147 9.13068V1.53409ZM68.5098 5.90909C68.5098 5.36553 68.6423 4.87003 68.9075 4.42259C69.1726 3.97514 69.5289 3.61884 69.9764 3.35369C70.4238 3.08854 70.9193 2.95597 71.4629 2.95597C71.9335 2.95597 72.3677 3.05705 72.7654 3.25923C73.1665 3.46141 73.4979 3.73816 73.7598 4.08949C74.0216 4.4375 74.184 4.83191 74.247 5.27273H73.0439C72.9776 4.93134 72.7936 4.65294 72.492 4.4375C72.1904 4.21875 71.8474 4.10938 71.4629 4.10938C71.1315 4.10938 70.8298 4.19058 70.5581 4.35298C70.2863 4.51539 70.0692 4.73248 69.9068 5.00426C69.7444 5.27604 69.6632 5.57765 69.6632 5.90909C69.6632 6.24053 69.7444 6.54214 69.9068 6.81392C70.0692 7.0857 70.2863 7.30279 70.5581 7.4652C70.8298 7.6276 71.1315 7.70881 71.4629 7.70881C71.8474 7.70881 72.1722 7.60109 72.4373 7.38565C72.7058 7.1669 72.8748 6.88684 72.9444 6.54545H74.1475C74.0846 6.98627 73.9305 7.38234 73.6852 7.73366C73.4399 8.08168 73.1251 8.35677 72.7406 8.55895C72.3594 8.76113 71.9335 8.86222 71.4629 8.86222C70.9193 8.86222 70.4238 8.72964 69.9764 8.46449C69.5289 8.19934 69.1726 7.84304 68.9075 7.3956C68.6423 6.94815 68.5098 6.45265 68.5098 5.90909ZM71.4132 11.1591C70.6906 11.1591 70.0112 11.0232 69.3748 10.7514C68.7418 10.4796 68.1833 10.1035 67.6994 9.62287C67.2188 9.13897 66.841 8.58049 66.5659 7.94744C66.2941 7.31439 66.1599 6.63494 66.1632 5.90909C66.1665 5.18324 66.304 4.50379 66.5758 3.87074C66.8509 3.23769 67.2288 2.68087 67.7093 2.20028C68.1899 1.71638 68.7467 1.33854 69.3798 1.06676C70.0128 0.794981 70.6906 0.659091 71.4132 0.659091C72.139 0.659091 72.8185 0.794981 73.4515 1.06676C74.0879 1.33854 74.6447 1.71638 75.122 2.20028C75.6026 2.68087 75.9788 3.23769 76.2505 3.87074C76.5223 4.50379 76.6599 5.18324 76.6632 5.90909C76.6665 6.63494 76.5323 7.31439 76.2605 7.94744C75.9887 8.58049 75.6125 9.13897 75.1319 9.62287C74.6513 10.1035 74.0929 10.4796 73.4565 10.7514C72.8201 11.0232 72.139 11.1591 71.4132 11.1591ZM71.4132 10.0057C71.9799 10.0057 72.5119 9.89962 73.0091 9.6875C73.5062 9.47538 73.9421 9.18205 74.3166 8.80753C74.6911 8.433 74.9844 7.99882 75.1966 7.50497C75.4087 7.00781 75.5131 6.47751 75.5098 5.91406C75.5065 5.3473 75.3987 4.81534 75.1866 4.31818C74.9745 3.82102 74.6812 3.38518 74.3066 3.01065C73.9321 2.63613 73.4979 2.3428 73.0041 2.13068C72.5102 1.91856 71.9799 1.8125 71.4132 1.8125C70.8497 1.8125 70.3211 1.91856 69.8272 2.13068C69.3334 2.3428 68.8992 2.63778 68.5247 3.01563C68.1502 3.39015 67.8552 3.82599 67.6397 4.32315C67.4276 4.817 67.3199 5.3473 67.3166 5.91406C67.3133 6.47419 67.4177 7.00284 67.6298 7.5C67.8419 7.99384 68.1352 8.42803 68.5098 8.80256C68.8876 9.17708 69.3234 9.47206 69.8173 9.6875C70.3145 9.89962 70.8464 10.0057 71.4132 10.0057ZM78.8743 11V10.1051L82.2351 6.42614C82.6295 5.99526 82.9543 5.62074 83.2095 5.30256C83.4647 4.98106 83.6536 4.67945 83.7763 4.39773C83.9022 4.11269 83.9652 3.81439 83.9652 3.50284C83.9652 3.14489 83.879 2.83499 83.7067 2.57315C83.5376 2.31132 83.3056 2.10914 83.0107 1.96662C82.7157 1.8241 82.3842 1.75284 82.0163 1.75284C81.6252 1.75284 81.2839 1.83404 80.9922 1.99645C80.7038 2.15554 80.4801 2.37926 80.321 2.66761C80.1652 2.95597 80.0874 3.29403 80.0874 3.68182H78.9141C78.9141 3.08523 79.0516 2.56155 79.3267 2.1108C79.6018 1.66004 79.9763 1.30871 80.4503 1.05682C80.9276 0.804924 81.4628 0.678977 82.0561 0.678977C82.6527 0.678977 83.1813 0.804924 83.642 1.05682C84.1027 1.30871 84.464 1.64844 84.7259 2.07599C84.9877 2.50355 85.1186 2.97917 85.1186 3.50284C85.1186 3.87737 85.0507 4.24361 84.9148 4.60156C84.7822 4.9562 84.5502 5.35227 84.2188 5.78977C83.8906 6.22396 83.4349 6.75426 82.8516 7.38068L80.5646 9.8267V9.90625L85.2976 9.90625V11L78.8743 11ZM90.6719 11.1392C89.9228 11.1392 89.2848 10.9354 88.7578 10.5277C88.2308 10.1167 87.8281 9.52178 87.5497 8.7429C87.2713 7.9607 87.1321 7.0161 87.1321 5.90909C87.1321 4.80871 87.2713 3.86908 87.5497 3.0902C87.8314 2.308 88.2358 1.71141 88.7628 1.30043C89.2931 0.886126 89.9295 0.678977 90.6719 0.678977C91.4143 0.678977 92.049 0.886126 92.576 1.30043C93.1063 1.71141 93.5107 2.308 93.7891 3.0902C94.0708 3.86908 94.2116 4.80871 94.2116 5.90909C94.2116 7.0161 94.0724 7.9607 93.794 8.7429C93.5156 9.52178 93.1129 10.1167 92.5859 10.5277C92.0589 10.9354 91.4209 11.1392 90.6719 11.1392ZM90.6719 10.0455C91.4143 10.0455 91.991 9.6875 92.402 8.97159C92.813 8.25568 93.0185 7.23485 93.0185 5.90909C93.0185 5.02746 92.924 4.27675 92.7351 3.65696C92.5495 3.03717 92.281 2.56487 91.9297 2.24006C91.5817 1.91525 91.1624 1.75284 90.6719 1.75284C89.9361 1.75284 89.361 2.11577 88.9467 2.84162C88.5324 3.56416 88.3253 4.58665 88.3253 5.90909C88.3253 6.79072 88.4181 7.53977 88.6037 8.15625C88.7893 8.77273 89.0561 9.24171 89.4041 9.56321C89.7554 9.88471 90.178 10.0455 90.6719 10.0455ZM96.1009 11V10.1051L99.4616 6.42614C99.8561 5.99526 100.181 5.62074 100.436 5.30256C100.691 4.98106 100.88 4.67945 101.003 4.39773C101.129 4.11269 101.192 3.81439 101.192 3.50284C101.192 3.14489 101.106 2.83499 100.933 2.57315C100.764 2.31132 100.532 2.10914 100.237 1.96662C99.9422 1.8241 99.6108 1.75284 99.2429 1.75284C98.8518 1.75284 98.5104 1.83404 98.2188 1.99645C97.9304 2.15554 97.7067 2.37926 97.5476 2.66761C97.3918 2.95597 97.3139 3.29403 97.3139 3.68182H96.1406C96.1406 3.08523 96.2782 2.56155 96.5533 2.1108C96.8284 1.66004 97.2029 1.30871 97.6768 1.05682C98.1541 0.804924 98.6894 0.678977 99.2827 0.678977C99.8793 0.678977 100.408 0.804924 100.869 1.05682C101.329 1.30871 101.691 1.64844 101.952 2.07599C102.214 2.50355 102.345 2.97917 102.345 3.50284C102.345 3.87737 102.277 4.24361 102.141 4.60156C102.009 4.9562 101.777 5.35227 101.445 5.78977C101.117 6.22396 100.661 6.75426 100.078 7.38068L97.7912 9.8267V9.90625L102.524 9.90625V11H96.1009ZM108.018 11.1392C107.362 11.1392 106.777 11.0265 106.263 10.8011C105.752 10.5758 105.346 10.2625 105.045 9.86151C104.746 9.45715 104.584 8.98816 104.558 8.45455L105.81 8.45455C105.837 8.78267 105.95 9.06605 106.148 9.30469C106.347 9.54001 106.607 9.7223 106.929 9.85156C107.25 9.98082 107.607 10.0455 107.998 10.0455C108.435 10.0455 108.823 9.96922 109.161 9.81676C109.499 9.6643 109.764 9.45218 109.957 9.1804C110.149 8.90862 110.245 8.59375 110.245 8.2358C110.245 7.86127 110.152 7.53149 109.967 7.24645C109.781 6.9581 109.509 6.73272 109.151 6.57031C108.793 6.40791 108.356 6.3267 107.839 6.3267H107.023V5.23295H107.839C108.243 5.23295 108.598 5.16004 108.903 5.0142C109.211 4.86837 109.451 4.66288 109.624 4.39773C109.799 4.13258 109.887 3.82102 109.887 3.46307C109.887 3.11837 109.811 2.81842 109.658 2.56321C109.506 2.308 109.29 2.10914 109.012 1.96662C108.737 1.8241 108.412 1.75284 108.038 1.75284C107.686 1.75284 107.355 1.81747 107.043 1.94673C106.735 2.07268 106.483 2.25663 106.288 2.49858C106.092 2.73722 105.986 3.02557 105.969 3.36364L104.776 3.36364C104.796 2.83002 104.957 2.36269 105.259 1.96165C105.56 1.55729 105.955 1.24242 106.442 1.01705C106.932 0.791666 107.471 0.678977 108.058 0.678977C108.687 0.678977 109.228 0.806581 109.678 1.06179C110.129 1.31368 110.475 1.64678 110.717 2.06108C110.959 2.47538 111.08 2.92282 111.08 3.40341C111.08 3.9768 110.929 4.46567 110.628 4.87003C110.33 5.27438 109.924 5.55445 109.41 5.71023V5.78977C110.053 5.89583 110.555 6.16927 110.916 6.61009C111.277 7.04759 111.458 7.58949 111.458 8.2358C111.458 8.7893 111.307 9.28646 111.006 9.72727C110.707 10.1648 110.3 10.5095 109.783 10.7614C109.266 11.0133 108.677 11.1392 108.018 11.1392Z" fill="#9095A0"/>
</svg>
