<svg width="36" height="36" viewBox="0 0 36 36" fill="none" xmlns="http://www.w3.org/2000/svg">
<path d="M21.5996 4.5V11.7L28.7996 11.7" stroke="#171A1F" stroke-width="2.16" stroke-miterlimit="10"/>
<path d="M28.8002 15.3L28.8002 11.7L21.6002 4.5L7.2002 4.5L7.2002 15.3" stroke="#171A1F" stroke-width="2.16" stroke-miterlimit="10" stroke-linecap="square"/>
<path d="M7.2002 27.9004L7.2002 31.5004L28.8002 31.5004V27.9004" stroke="#171A1F" stroke-width="2.16" stroke-miterlimit="10" stroke-linecap="square"/>
<path d="M13.9497 20.2504C13.5897 20.2504 13.3197 20.4304 13.1397 20.7004C12.9597 20.9704 12.8697 21.3304 12.8697 21.7804C12.8697 22.7704 13.2297 23.2204 14.0397 23.2204C14.3097 23.2204 14.4897 23.2204 14.6697 23.1304C14.8497 23.0404 15.1197 22.9504 15.2997 22.8604L15.2997 24.0304C14.8497 24.2104 14.3997 24.3004 13.8597 24.3004C13.0497 24.3004 12.5097 24.1204 12.0597 23.5804C11.6097 23.0404 11.4297 22.5004 11.4297 21.6004C11.4297 21.0604 11.5197 20.6104 11.6997 20.1604C11.8797 19.7104 12.1497 19.4404 12.5997 19.2604C13.0497 19.0804 13.4097 18.9004 13.9497 18.9004C14.4897 18.9004 15.0297 18.9904 15.5697 19.2604L15.1197 20.3404C14.9397 20.2504 14.7597 20.1604 14.5797 20.1604C14.3997 20.1604 14.1297 20.2504 13.9497 20.2504Z" fill="#171A1F"/>
<path d="M19.7095 22.7699C19.7095 23.1299 19.6195 23.3999 19.4395 23.5799C19.2595 23.7599 19.0795 24.0299 18.7195 24.1199C18.3595 24.2099 18.0895 24.2999 17.6395 24.2999C17.2795 24.2999 17.0095 24.2999 16.7395 24.2099C16.4695 24.1199 16.2895 24.1199 16.0195 23.9399V22.6799C16.2895 22.8599 16.5595 22.9499 16.8295 23.0399C17.0995 23.1299 17.3695 23.1299 17.6395 23.1299C17.8195 23.1299 17.9995 23.1299 18.0895 23.0399C18.1795 22.9499 18.2695 22.8599 18.2695 22.7699C18.2695 22.6799 18.2695 22.6799 18.1795 22.5899C18.0895 22.4999 18.0895 22.5899 17.9995 22.4999C17.9095 22.4099 17.7295 22.3199 17.2795 22.1399C16.9195 21.9599 16.6495 21.8699 16.5595 21.6899C16.4695 21.5099 16.2895 21.4199 16.1995 21.2399C16.1095 21.0599 16.1095 20.8799 16.1095 20.6099C16.1095 20.1599 16.2895 19.7999 16.6495 19.5299C17.0095 19.2599 17.4595 19.1699 18.0895 19.1699C18.6295 19.1699 19.1695 19.2599 19.7095 19.5299L19.2595 20.6099C18.8095 20.4299 18.3595 20.2499 17.9995 20.2499C17.8195 20.2499 17.7295 20.2499 17.6395 20.3399C17.5495 20.4299 17.5495 20.5199 17.5495 20.6099C17.5495 20.6999 17.6395 20.7899 17.7295 20.8799C17.8195 20.9699 18.0895 21.0599 18.5395 21.3299C18.9895 21.5099 19.2595 21.7799 19.4395 21.9599C19.6195 22.1399 19.7095 22.4099 19.7095 22.7699Z" fill="#171A1F"/>
<path d="M23.3996 19.1699H24.9296L23.2196 24.2999H21.5996L19.8896 19.1699H21.4196L22.1396 21.7799C22.3196 22.3199 22.3196 22.7699 22.4096 22.9499C22.4096 22.7699 22.4996 22.5899 22.4996 22.3199C22.4996 22.0499 22.5896 21.8699 22.5896 21.7799L23.3996 19.1699Z" fill="#171A1F"/>
<path d="M31.5 15.2998L4.5 15.2998L4.5 27.8998L31.5 27.8998L31.5 15.2998Z" stroke="#171A1F" stroke-width="2.16" stroke-miterlimit="10" stroke-linecap="square"/>
</svg>
