<svg width="30" height="30" viewBox="0 0 30 30" fill="none" xmlns="http://www.w3.org/2000/svg">
<path d="M18 3.75V9.75L24 9.75" stroke="#60AEFF" stroke-width="1.8" stroke-miterlimit="10"/>
<path d="M24 12.75L24 9.75L18 3.75L6 3.75L6 12.75" stroke="#60AEFF" stroke-width="1.8" stroke-miterlimit="10" stroke-linecap="square"/>
<path d="M6 23.25L6 26.25L24 26.25V23.25" stroke="#60AEFF" stroke-width="1.8" stroke-miterlimit="10" stroke-linecap="square"/>
<path d="M11.6254 16.875C11.3254 16.875 11.1004 17.025 10.9504 17.25C10.8004 17.475 10.7254 17.775 10.7254 18.15C10.7254 18.975 11.0254 19.35 11.7004 19.35C11.9254 19.35 12.0754 19.35 12.2254 19.275C12.3754 19.2 12.6004 19.125 12.7504 19.05V20.025C12.3754 20.175 12.0004 20.25 11.5504 20.25C10.8754 20.25 10.4254 20.1 10.0504 19.65C9.67539 19.2 9.52539 18.75 9.52539 18C9.52539 17.55 9.60039 17.175 9.75039 16.8C9.90039 16.425 10.1254 16.2 10.5004 16.05C10.8754 15.9 11.1754 15.75 11.6254 15.75C12.0754 15.75 12.5254 15.825 12.9754 16.05L12.6004 16.95C12.4504 16.875 12.3004 16.8 12.1504 16.8C12.0004 16.8 11.7754 16.875 11.6254 16.875Z" fill="#60AEFF"/>
<path d="M16.4246 18.9746C16.4246 19.2746 16.3496 19.4996 16.1996 19.6496C16.0496 19.7996 15.8996 20.0246 15.5996 20.0996C15.2996 20.1746 15.0746 20.2496 14.6996 20.2496C14.3996 20.2496 14.1746 20.2496 13.9496 20.1746C13.7246 20.0996 13.5746 20.0996 13.3496 19.9496L13.3496 18.8996C13.5746 19.0496 13.7996 19.1246 14.0246 19.1996C14.2496 19.2746 14.4746 19.2746 14.6996 19.2746C14.8496 19.2746 14.9996 19.2746 15.0746 19.1996C15.1496 19.1246 15.2246 19.0496 15.2246 18.9746C15.2246 18.8996 15.2246 18.8996 15.1496 18.8246C15.0746 18.7496 15.0746 18.8246 14.9996 18.7496C14.9246 18.6746 14.7746 18.5996 14.3996 18.4496C14.0996 18.2996 13.8746 18.2246 13.7996 18.0746C13.7246 17.9246 13.5746 17.8496 13.4996 17.6996C13.4246 17.5496 13.4246 17.3996 13.4246 17.1746C13.4246 16.7996 13.5746 16.4996 13.8746 16.2746C14.1746 16.0496 14.5496 15.9746 15.0746 15.9746C15.5246 15.9746 15.9746 16.0496 16.4246 16.2746L16.0496 17.1746C15.6746 17.0246 15.2996 16.8746 14.9996 16.8746C14.8496 16.8746 14.7746 16.8746 14.6996 16.9496C14.6246 17.0246 14.6246 17.0996 14.6246 17.1746C14.6246 17.2496 14.6996 17.3246 14.7746 17.3996C14.8496 17.4746 15.0746 17.5496 15.4496 17.7746C15.8246 17.9246 16.0496 18.1496 16.1996 18.2996C16.3496 18.4496 16.4246 18.6746 16.4246 18.9746Z" fill="#60AEFF"/>
<path d="M19.4992 15.9746L20.7742 15.9746L19.3492 20.2496H17.9992L16.5742 15.9746H17.8492L18.4492 18.1496C18.5992 18.5996 18.5992 18.9746 18.6742 19.1246C18.6742 18.9746 18.7492 18.8246 18.7492 18.5996C18.7492 18.3746 18.8242 18.2246 18.8242 18.1496L19.4992 15.9746Z" fill="#60AEFF"/>
<path d="M26.25 12.75L3.75 12.75L3.75 23.25L26.25 23.25L26.25 12.75Z" stroke="#60AEFF" stroke-width="1.8" stroke-miterlimit="10" stroke-linecap="square"/>
</svg>
