<svg width="25" height="26" viewBox="0 0 25 26" fill="none" xmlns="http://www.w3.org/2000/svg">
<rect y="0.5" width="25" height="25" rx="2" fill="#DE3B40"/>
<path d="M7.93099 21.3333C7.46571 21.3333 7.06884 21.1694 6.74036 20.8417C6.41259 20.5139 6.2487 20.117 6.2487 19.651V6.75H5.20703V5.70833H9.3737V4.90625H15.6237V5.70833H19.7904V6.75H18.7487V19.651C18.7487 20.1302 18.5883 20.5302 18.2674 20.851C17.9459 21.1726 17.5456 21.3333 17.0664 21.3333H7.93099ZM17.707 6.75H7.29036V19.651C7.29036 19.8378 7.35043 19.9913 7.47057 20.1115C7.59071 20.2316 7.74418 20.2917 7.93099 20.2917H17.0664C17.2261 20.2917 17.373 20.225 17.507 20.0917C17.6404 19.9576 17.707 19.8108 17.707 19.651V6.75ZM10.2154 18.2083H11.257V8.83333H10.2154V18.2083ZM13.7404 18.2083H14.782V8.83333H13.7404V18.2083Z" fill="white"/>
</svg>
