<svg width="24" height="24" viewBox="0 0 24 24" fill="none" xmlns="http://www.w3.org/2000/svg">
<path d="M11.9999 13.7147C12.9467 13.7147 13.7142 12.9472 13.7142 12.0004C13.7142 11.0536 12.9467 10.2861 11.9999 10.2861C11.0532 10.2861 10.2856 11.0536 10.2856 12.0004C10.2856 12.9472 11.0532 13.7147 11.9999 13.7147Z" stroke="#9095A0" stroke-width="2.05714" stroke-miterlimit="10" stroke-linecap="square"/>
<path d="M4.28582 13.7147C5.23259 13.7147 6.0001 12.9472 6.0001 12.0004C6.0001 11.0536 5.23259 10.2861 4.28582 10.2861C3.33905 10.2861 2.57153 11.0536 2.57153 12.0004C2.57153 12.9472 3.33905 13.7147 4.28582 13.7147Z" stroke="#9095A0" stroke-width="2.05714" stroke-miterlimit="10" stroke-linecap="square"/>
<path d="M19.7143 13.7147C20.6611 13.7147 21.4286 12.9472 21.4286 12.0004C21.4286 11.0536 20.6611 10.2861 19.7143 10.2861C18.7675 10.2861 18 11.0536 18 12.0004C18 12.9472 18.7675 13.7147 19.7143 13.7147Z" stroke="#9095A0" stroke-width="2.05714" stroke-miterlimit="10" stroke-linecap="square"/>
</svg>
