<svg width="44" height="44" viewBox="0 0 44 44" fill="none" xmlns="http://www.w3.org/2000/svg">
<rect width="44" height="44" rx="4" fill="#00BDD6"/>
<path d="M21.9917 13.667C17.3917 13.667 13.6667 17.4003 13.6667 22.0003C13.6667 26.6003 17.3917 30.3337 21.9917 30.3337C26.6001 30.3337 30.3334 26.6003 30.3334 22.0003C30.3334 17.4003 26.6001 13.667 21.9917 13.667ZM22.0001 28.667C18.3167 28.667 15.3334 25.6837 15.3334 22.0003C15.3334 18.317 18.3167 15.3337 22.0001 15.3337C25.6834 15.3337 28.6667 18.317 28.6667 22.0003C28.6667 25.6837 25.6834 28.667 22.0001 28.667ZM24.9167 21.167C25.6084 21.167 26.1667 20.6087 26.1667 19.917C26.1667 19.2253 25.6084 18.667 24.9167 18.667C24.2251 18.667 23.6667 19.2253 23.6667 19.917C23.6667 20.6087 24.2251 21.167 24.9167 21.167ZM19.0834 21.167C19.7751 21.167 20.3334 20.6087 20.3334 19.917C20.3334 19.2253 19.7751 18.667 19.0834 18.667C18.3917 18.667 17.8334 19.2253 17.8334 19.917C17.8334 20.6087 18.3917 21.167 19.0834 21.167ZM22.0001 26.5837C23.9417 26.5837 25.5917 25.367 26.2584 23.667L17.7417 23.667C18.4084 25.367 20.0584 26.5837 22.0001 26.5837Z" fill="white"/>
</svg>
