<svg width="24" height="24" viewBox="0 0 24 24" fill="none" xmlns="http://www.w3.org/2000/svg">
<path d="M6.85039 17.7744L8.74296 19.1998C9.17496 19.5238 9.42868 20.0313 9.42868 20.5713V21.4284H2.57153V20.5713C2.57153 20.0313 2.82525 19.5238 3.25725 19.1998L5.14982 17.7744" stroke="#565E6C" stroke-width="2.05714" stroke-miterlimit="10"/>
<path d="M5.99993 18.0001C5.05279 18.0001 4.28564 17.2329 4.28564 16.2858L4.28564 15.4286C4.28564 14.4815 5.05279 13.7144 5.99993 13.7144C6.94707 13.7144 7.71422 14.4815 7.71422 15.4286V16.2858C7.71422 17.2329 6.94707 18.0001 5.99993 18.0001Z" stroke="#565E6C" stroke-width="2.05714" stroke-miterlimit="10" stroke-linecap="square"/>
<path d="M12.8504 6.63184L14.743 8.05726C15.175 8.38126 15.4287 8.88869 15.4287 9.42869V10.2858L8.57153 10.2858L8.57153 9.42869C8.57153 8.88869 8.82525 8.38126 9.25725 8.05726L11.1498 6.63184" stroke="#565E6C" stroke-width="2.05714" stroke-miterlimit="10"/>
<path d="M11.9999 6.857C11.0528 6.857 10.2856 6.08986 10.2856 5.14272V4.28557C10.2856 3.33843 11.0528 2.57129 11.9999 2.57129C12.9471 2.57129 13.7142 3.33843 13.7142 4.28557V5.14272C13.7142 6.08986 12.9471 6.857 11.9999 6.857Z" stroke="#565E6C" stroke-width="2.05714" stroke-miterlimit="10" stroke-linecap="square"/>
<path d="M18.8504 17.7744L20.743 19.1998C21.175 19.5238 21.4287 20.0313 21.4287 20.5713V21.4284H14.5715L14.5715 20.5713C14.5715 20.0313 14.8252 19.5238 15.2572 19.1998L17.1498 17.7744" stroke="#565E6C" stroke-width="2.05714" stroke-miterlimit="10"/>
<path d="M17.9999 18.0001C17.0528 18.0001 16.2856 17.2329 16.2856 16.2858V15.4286C16.2856 14.4815 17.0528 13.7144 17.9999 13.7144C18.9471 13.7144 19.7142 14.4815 19.7142 15.4286V16.2858C19.7142 17.2329 18.9471 18.0001 17.9999 18.0001Z" stroke="#565E6C" stroke-width="2.05714" stroke-miterlimit="10" stroke-linecap="square"/>
</svg>
