<svg width="16" height="17" viewBox="0 0 16 17" fill="none" xmlns="http://www.w3.org/2000/svg">
<path d="M4.70356 5.90789C3.27596 6.79629 2.45996 8.05909 2.45996 8.05909C2.69396 5.12829 4.98996 2.72949 8.10276 2.72949C8.66116 2.72949 9.83196 2.82669 10.8864 3.47669C12.2368 4.30909 13.0108 5.42349 13.3184 6.68109C13.5812 7.75709 13.5372 8.79869 13.5372 9.69389L6.00036 9.69389C6.00036 9.69389 5.81636 12.2259 9.28236 12.2259C10.4688 12.2259 11.5996 11.9591 12.5264 11.3255L12.5276 13.8555C12.5276 13.8555 11.1092 14.7291 8.96596 14.7291C6.27636 14.7291 4.54676 13.2387 4.00716 11.3255C3.85316 10.7791 3.85476 10.2479 3.85476 9.95549C3.85476 8.86149 4.22836 7.81709 4.87716 7.06189C5.71716 6.08389 6.77916 5.65309 6.77916 5.65309C6.32836 6.17869 6.02716 6.89149 5.94956 7.56549L10.2052 7.56549C10.2052 7.56549 10.454 5.02269 7.79716 5.02269C6.79636 5.02309 5.56676 5.37069 4.70356 5.90789Z" stroke="#565E6C" stroke-width="0.96" stroke-miterlimit="10" stroke-linecap="square"/>
</svg>
