<svg width="44" height="44" viewBox="0 0 44 44" fill="none" xmlns="http://www.w3.org/2000/svg">
<rect width="44" height="44" rx="4" fill="#00BDD6"/>
<path d="M21.9999 15.75C17.8333 15.75 14.2749 18.3417 12.8333 22C14.2749 25.6583 17.8333 28.25 21.9999 28.25C26.1666 28.25 29.7249 25.6583 31.1666 22C29.7249 18.3417 26.1666 15.75 21.9999 15.75ZM21.9999 26.1667C19.6999 26.1667 17.8333 24.3 17.8333 22C17.8333 19.7 19.6999 17.8333 21.9999 17.8333C24.2999 17.8333 26.1666 19.7 26.1666 22C26.1666 24.3 24.2999 26.1667 21.9999 26.1667ZM21.9999 19.5C20.6166 19.5 19.4999 20.6167 19.4999 22C19.4999 23.3833 20.6166 24.5 21.9999 24.5C23.3833 24.5 24.4999 23.3833 24.4999 22C24.4999 20.6167 23.3833 19.5 21.9999 19.5Z" fill="white"/>
</svg>
