<svg width="16" height="17" viewBox="0 0 16 17" fill="none" xmlns="http://www.w3.org/2000/svg">
<path d="M14.3996 8.43025C14.3994 7.20722 14.0488 6.00985 13.3892 4.9799C12.7297 3.94995 11.7888 3.13055 10.6781 2.6187C9.5673 2.10685 8.33313 1.92398 7.12166 2.09176C5.9102 2.25953 4.77217 2.77092 3.8423 3.56537C2.91244 4.35983 2.22969 5.40408 1.87486 6.57451C1.52004 7.74494 1.50802 8.99253 1.84021 10.1696C2.1724 11.3466 2.8349 12.4039 3.74927 13.2161C4.66364 14.0283 5.7916 14.5615 6.99961 14.7526L6.99961 10.2802H5.37481V8.43025H6.99961L6.99961 7.02025C6.99961 5.41625 7.95521 4.53025 9.41681 4.53025C9.89681 4.5369 10.3757 4.57861 10.8496 4.65505L10.8496 6.23025L10.0424 6.23025C9.90486 6.21198 9.76496 6.2249 9.63308 6.26805C9.5012 6.31119 9.38072 6.38347 9.28056 6.47951C9.18041 6.57555 9.10316 6.6929 9.05452 6.82286C9.00589 6.95281 8.98712 7.09205 8.99961 7.23025L8.99961 8.43025L10.7748 8.43025L10.4908 10.2802H8.99961L8.99961 14.7526C10.5051 14.5145 11.8762 13.7468 12.8661 12.5878C13.8561 11.4288 14.3998 9.95448 14.3996 8.43025Z" fill="#565E6C"/>
</svg>
