<svg width="12" height="12" viewBox="0 0 12 12" fill="none" xmlns="http://www.w3.org/2000/svg">
<g clip-path="url(#clip0_1279_832)">
<path d="M9.99997 0.666047L0.666667 9.99935C0.298477 10.3675 0.298477 10.9645 0.666667 11.3327L0.666668 11.3327C1.03486 11.7009 1.63181 11.7009 2 11.3327L11.3333 1.99938C11.7015 1.63119 11.7015 1.03424 11.3333 0.666047C10.9651 0.297858 10.3682 0.297857 9.99997 0.666047Z" fill="#BCC1CA"/>
<path d="M9.9987 5.99935L5.9987 9.99935C5.63051 10.3675 5.63051 10.9645 5.9987 11.3327L5.9987 11.3327C6.36689 11.7009 6.96384 11.7009 7.33203 11.3327L11.332 7.33269C11.7002 6.9645 11.7002 6.36754 11.332 5.99935C10.9638 5.63116 10.3669 5.63116 9.9987 5.99935Z" fill="#BCC1CA"/>
</g>
<defs>
<clipPath id="clip0_1279_832">
<rect width="12" height="12" fill="white"/>
</clipPath>
</defs>
</svg>
