<svg width="17" height="16" viewBox="0 0 17 16" fill="none" xmlns="http://www.w3.org/2000/svg">
<g id="Frame">
<path id="Vector" d="M14.2532 6.9092L8.52605 6.9092V9.3636H11.772C11.252 11 9.97205 11.5456 8.50005 11.5456C7.92975 11.5463 7.36768 11.4095 6.86154 11.1467C6.35539 10.8839 5.92011 10.5029 5.59262 10.036C5.26514 9.56911 5.05511 9.0301 4.98036 8.46472C4.90561 7.89933 4.96835 7.32427 5.16325 6.7883C5.35815 6.25234 5.67946 5.77129 6.09992 5.38599C6.52037 5.00068 7.02757 4.72249 7.57847 4.57501C8.12938 4.42753 8.70773 4.41511 9.26445 4.53882C9.82117 4.66252 10.3398 4.91869 10.7764 5.2856L12.56 3.5868C11.8418 2.92523 10.9729 2.44897 10.0289 2.19935C9.08484 1.94973 8.09413 1.9343 7.14276 2.15439C6.19139 2.37449 5.30812 2.82346 4.56961 3.46233C3.83111 4.10121 3.2597 4.91067 2.90498 5.82046C2.55026 6.73025 2.42296 7.71287 2.53412 8.68302C2.64528 9.65317 2.99155 10.5815 3.54286 11.3875C4.09418 12.1935 4.83388 12.8527 5.69775 13.308C6.56162 13.7633 7.52355 14.0008 8.50005 14C11.8084 14 14.7988 11.818 14.2532 6.9092Z" fill="#171A1F"/>
</g>
</svg>
