<svg width="16" height="17" viewBox="0 0 16 17" fill="none" xmlns="http://www.w3.org/2000/svg">
<path d="M13.7532 7.19924L8.02605 7.19924L8.02605 9.65364L11.272 9.65364C10.752 11.29 9.47205 11.8356 8.00005 11.8356C7.42975 11.8364 6.86768 11.6996 6.36154 11.4368C5.85539 11.174 5.42011 10.7929 5.09262 10.326C4.76514 9.85915 4.55511 9.32014 4.48036 8.75476C4.40561 8.18937 4.46835 7.6143 4.66325 7.07834C4.85815 6.54237 5.17946 6.06133 5.59992 5.67603C6.02037 5.29072 6.52757 5.01253 7.07847 4.86505C7.62938 4.71757 8.20773 4.70515 8.76445 4.82886C9.32117 4.95256 9.83984 5.20873 10.2764 5.57564L12.06 3.87684C11.3418 3.21527 10.4729 2.73901 9.52889 2.48939C8.58484 2.23977 7.59413 2.22434 6.64276 2.44443C5.69139 2.66453 4.80812 3.1135 4.06961 3.75237C3.33111 4.39125 2.7597 5.20071 2.40498 6.1105C2.05026 7.02029 1.92296 8.00291 2.03412 8.97306C2.14528 9.94321 2.49155 10.8716 3.04286 11.6775C3.59418 12.4835 4.33388 13.1428 5.19775 13.598C6.06162 14.0533 7.02355 14.2908 8.00005 14.29C11.3084 14.29 14.2988 12.108 13.7532 7.19924Z" fill="#565E6C"/>
</svg>
