<svg width="12" height="12" viewBox="0 0 12 12" fill="none" xmlns="http://www.w3.org/2000/svg">
<path d="M11.2502 2.625V5.625C11.2502 5.72446 11.2107 5.81984 11.1404 5.89016C11.07 5.96049 10.9747 6 10.8752 6C10.7758 6 10.6804 5.96049 10.61 5.89016C10.5397 5.81984 10.5002 5.72446 10.5002 5.625V3.53016L6.64052 7.39031C6.60569 7.42518 6.56434 7.45284 6.51881 7.47171C6.47329 7.49058 6.42449 7.50029 6.37521 7.50029C6.32593 7.50029 6.27713 7.49058 6.23161 7.47171C6.18608 7.45284 6.14472 7.42518 6.1099 7.39031L4.50021 5.78016L1.39052 8.89031C1.32016 8.96068 1.22472 9.00021 1.12521 9.00021C1.0257 9.00021 0.930261 8.96068 0.859896 8.89031C0.789531 8.81995 0.75 8.72451 0.75 8.625C0.75 8.52549 0.789531 8.43005 0.859896 8.35969L4.2349 4.98469C4.26972 4.94982 4.31108 4.92216 4.35661 4.90329C4.40213 4.88442 4.45093 4.8747 4.50021 4.8747C4.54949 4.8747 4.59829 4.88442 4.64381 4.90329C4.68934 4.92216 4.73069 4.94982 4.76552 4.98469L6.37521 6.59484L9.97005 3L7.87521 3C7.77575 3 7.68037 2.96049 7.61004 2.89016C7.53972 2.81984 7.50021 2.72446 7.50021 2.625C7.50021 2.52554 7.53972 2.43016 7.61004 2.35984C7.68037 2.28951 7.77575 2.25 7.87521 2.25L10.8752 2.25C10.9747 2.25 11.07 2.28951 11.1404 2.35984C11.2107 2.43016 11.2502 2.52554 11.2502 2.625Z" fill="#F1548B"/>
</svg>
