<svg width="240" height="120" viewBox="0 0 240 120" fill="none" xmlns="http://www.w3.org/2000/svg">
<g clip-path="url(#clip0_1_2072)">
<path fill-rule="evenodd" clip-rule="evenodd" d="M204.853 35.1472C227.357 57.6516 240 88.174 240 120H210C210 108.181 207.672 96.4778 203.149 85.5585C198.626 74.6392 191.997 64.7177 183.64 56.3604C175.282 48.0031 165.361 41.3738 154.442 36.8508C143.522 32.3279 131.819 30 120 30C108.181 30 96.4778 32.3279 85.5585 36.8508C74.6392 41.3738 64.7177 48.0031 56.3604 56.3604C48.0031 64.7177 41.3738 74.6392 36.8508 85.5585C32.3279 96.4778 30 108.181 30 120H0C4.80559e-06 88.174 12.6428 57.6515 35.1472 35.1472C57.6516 12.6428 88.174 -2.40279e-06 120 0C151.826 2.4028e-06 182.348 12.6428 204.853 35.1472Z" fill="#A6F5FF"/>
<path fill-rule="evenodd" clip-rule="evenodd" d="M0 120H30C30 108.181 32.3279 96.4778 36.8508 85.5585C41.3738 74.6392 48.0032 64.7177 56.3604 56.3604C64.7178 48.0031 74.6392 41.3738 85.5586 36.8509C96.4778 32.3279 108.181 30 120 30C131.819 30 143.522 32.3279 154.441 36.8508C158.203 38.409 161.847 40.2172 165.348 42.2599L180.465 16.3463C162.267 5.73178 141.429 0 120 0C88.1741 0 57.6516 12.6428 35.1472 35.1472C12.6428 57.6516 0 88.174 0 120Z" fill="#00BDD6"/>
</g>
<defs>
<clipPath id="clip0_1_2072">
<rect width="240" height="120" fill="white"/>
</clipPath>
</defs>
</svg>
