<svg width="16" height="17" viewBox="0 0 16 17" fill="none" xmlns="http://www.w3.org/2000/svg">
<path d="M4.4 6.95039C5.72548 6.95039 6.8 5.87587 6.8 4.55039C6.8 3.22491 5.72548 2.15039 4.4 2.15039C3.07452 2.15039 2 3.22491 2 4.55039C2 5.87587 3.07452 6.95039 4.4 6.95039Z" stroke="#565E6C" stroke-width="0.8" stroke-linecap="round" stroke-linejoin="round"/>
<path d="M11.6002 6.95039C12.9257 6.95039 14.0002 5.87587 14.0002 4.55039C14.0002 3.22491 12.9257 2.15039 11.6002 2.15039C10.2747 2.15039 9.2002 3.22491 9.2002 4.55039C9.2002 5.87587 10.2747 6.95039 11.6002 6.95039Z" stroke="#565E6C" stroke-width="0.8" stroke-linecap="round" stroke-linejoin="round"/>
<path d="M4.4 14.1506C5.72548 14.1506 6.8 13.0761 6.8 11.7506C6.8 10.4251 5.72548 9.35059 4.4 9.35059C3.07452 9.35059 2 10.4251 2 11.7506C2 13.0761 3.07452 14.1506 4.4 14.1506Z" stroke="#565E6C" stroke-width="0.8" stroke-linecap="round" stroke-linejoin="round"/>
<path d="M11.6002 14.1506C12.9257 14.1506 14.0002 13.0761 14.0002 11.7506C14.0002 10.4251 12.9257 9.35059 11.6002 9.35059C10.2747 9.35059 9.2002 10.4251 9.2002 11.7506C9.2002 13.0761 10.2747 14.1506 11.6002 14.1506Z" stroke="#565E6C" stroke-width="0.8" stroke-linecap="round" stroke-linejoin="round"/>
</svg>
