<svg width="24" height="24" viewBox="0 0 24 24" fill="none" xmlns="http://www.w3.org/2000/svg">
<path d="M3.42847 20.571L5.54047 18.459" stroke="#565E6C" stroke-width="2.05714" stroke-miterlimit="10" stroke-linecap="square"/>
<path d="M6.82629 11.1123L5.54058 12.398C4.73675 13.2019 4.28516 14.2921 4.28516 15.4289C4.28516 16.5657 4.73675 17.6559 5.54058 18.4597C6.34441 19.2636 7.43464 19.7152 8.57144 19.7152C9.70823 19.7152 10.7985 19.2636 11.6023 18.4597L12.888 17.174L6.82629 11.1123Z" stroke="#565E6C" stroke-width="2.05714" stroke-miterlimit="10" stroke-linecap="square"/>
<path d="M20.5715 3.42871L18.4595 5.54071" stroke="#565E6C" stroke-width="2.05714" stroke-miterlimit="10" stroke-linecap="square"/>
<path d="M17.1738 12.888L18.4595 11.6023C19.2633 10.7985 19.7149 9.70823 19.7149 8.57144C19.7149 7.43464 19.2633 6.34441 18.4595 5.54058C17.6557 4.73675 16.5654 4.28516 15.4286 4.28516C14.2918 4.28516 13.2016 4.73675 12.3978 5.54058L11.1121 6.82629L17.1738 12.888Z" stroke="#565E6C" stroke-width="2.05714" stroke-miterlimit="10" stroke-linecap="square"/>
<path d="M10.2858 11.1426L8.57153 12.8569" stroke="#565E6C" stroke-width="2.05714" stroke-miterlimit="10" stroke-linecap="square"/>
<path d="M12.8571 13.7139L11.1428 15.4282" stroke="#565E6C" stroke-width="2.05714" stroke-miterlimit="10" stroke-linecap="square"/>
</svg>
