<svg width="16" height="17" viewBox="0 0 16 17" fill="none" xmlns="http://www.w3.org/2000/svg">
<path d="M13.2 2.87012L2.8 2.87012C2.58783 2.87012 2.38434 2.9544 2.23431 3.10443C2.08429 3.25446 2 3.45794 2 3.67012L2 14.0701C2 14.2823 2.08429 14.4858 2.23431 14.6358C2.38434 14.7858 2.58783 14.8701 2.8 14.8701L13.2 14.8701C13.4122 14.8701 13.6157 14.7858 13.7657 14.6358C13.9157 14.4858 14 14.2823 14 14.0701L14 3.67012C14 3.45794 13.9157 3.25446 13.7657 3.10443C13.6157 2.9544 13.4122 2.87012 13.2 2.87012ZM5.5548 13.1077H3.7496L3.7496 7.37012L5.5548 7.37012L5.5548 13.1077ZM4.652 6.58252C4.44447 6.58188 4.24178 6.51977 4.06953 6.40401C3.89728 6.28825 3.76319 6.12404 3.68421 5.93212C3.60523 5.74021 3.58489 5.52919 3.62577 5.32572C3.66664 5.12225 3.7669 4.93546 3.91387 4.78893C4.06084 4.64241 4.24794 4.54272 4.45153 4.50246C4.65512 4.46221 4.86608 4.48319 5.05775 4.56275C5.24943 4.64232 5.41323 4.7769 5.52846 4.9495C5.6437 5.1221 5.7052 5.32498 5.7052 5.53252C5.70525 5.67069 5.67802 5.80751 5.62508 5.93514C5.57213 6.06276 5.4945 6.17868 5.39665 6.27623C5.2988 6.37379 5.18265 6.45106 5.05486 6.50362C4.92708 6.55618 4.79017 6.58299 4.652 6.58252ZM12.2484 13.1077H10.48V10.3325C10.48 9.65772 10.48 8.83252 9.54 8.83252C8.6 8.83252 8.4868 9.54532 8.4868 10.2949L8.4868 13.1453H6.72L6.72 7.37012L8.3744 7.37012V8.15772H8.412C8.58263 7.86272 8.83023 7.61965 9.12833 7.4545C9.42643 7.28935 9.76381 7.20833 10.1044 7.22012C11.9096 7.22012 12.248 8.42012 12.248 9.95772L12.2484 13.1077Z" fill="#565E6C"/>
</svg>
