<svg width="20" height="20" viewBox="0 0 20 20" fill="none" xmlns="http://www.w3.org/2000/svg">
<path d="M18 9.99972C17.9998 8.47093 17.5615 6.97423 16.737 5.68679C15.9126 4.39935 14.7365 3.3751 13.3481 2.73528C11.9596 2.09547 10.4169 1.86689 8.90257 2.07661C7.38823 2.28633 5.9657 2.92556 4.80337 3.91863C3.64104 4.9117 2.7876 6.21701 2.34407 7.68005C1.90054 9.14309 1.88551 10.7026 2.30075 12.1739C2.71599 13.6452 3.54411 14.9667 4.68708 15.982C5.83004 16.9973 7.23999 17.6638 8.75 17.9027V12.3122H6.719L6.719 9.99972L8.75 9.99972V8.23722C8.75 6.23222 9.9445 5.12472 11.7715 5.12472C12.3715 5.13304 12.9701 5.18518 13.5625 5.28072L13.5625 7.24972H12.5535C12.3816 7.22689 12.2067 7.24303 12.0418 7.29697C11.877 7.35091 11.7264 7.44125 11.6012 7.5613C11.476 7.68135 11.3794 7.82804 11.3186 7.99048C11.2578 8.15293 11.2344 8.32698 11.25 8.49972V9.99972H13.469L13.114 12.3122L11.25 12.3122L11.25 17.9027C13.1319 17.605 14.8458 16.6454 16.0832 15.1967C17.3206 13.7479 18.0003 11.905 18 9.99972Z" fill="#323842"/>
</svg>
