<svg width="20" height="20" viewBox="0 0 20 20" fill="none" xmlns="http://www.w3.org/2000/svg">
<path d="M10 3.85C12 3.85 12.24 3.8575 13.0305 3.8935C13.5062 3.89911 13.9774 3.98656 14.4235 4.152C14.7492 4.27222 15.0437 4.46392 15.2855 4.713C15.5346 4.95479 15.7263 5.24934 15.8465 5.575C16.0119 6.02107 16.0994 6.49228 16.105 6.968C16.141 7.76 16.15 8 16.15 10C16.15 12 16.1425 12.24 16.1065 13.0305C16.1009 13.5062 16.0134 13.9774 15.848 14.4235C15.7232 14.7468 15.5321 15.0404 15.287 15.2855C15.0419 15.5306 14.7483 15.7217 14.425 15.8465C13.9789 16.0119 13.5077 16.0994 13.032 16.105C12.2415 16.141 12.004 16.1485 10.0015 16.1485C7.999 16.1485 7.7615 16.141 6.971 16.105C6.49528 16.0994 6.02407 16.0119 5.578 15.8465C5.25234 15.7263 4.95779 15.5346 4.716 15.2855C4.46692 15.0437 4.27522 14.7492 4.155 14.4235C3.98956 13.9774 3.90211 13.5062 3.8965 13.0305C3.859 12.24 3.85 12.0025 3.85 10C3.85 7.9975 3.8575 7.76 3.8935 6.9695C3.89911 6.49378 3.98656 6.02257 4.152 5.5765C4.27265 5.2507 4.46487 4.95613 4.7145 4.7145C4.95629 4.46542 5.25084 4.27372 5.5765 4.1535C6.02257 3.98806 6.49378 3.90061 6.9695 3.895C7.76 3.859 8 3.85 10 3.85ZM10 2.5C7.963 2.5 7.7075 2.5085 6.908 2.545C6.28561 2.55819 5.66993 2.67652 5.087 2.895C4.58688 3.08322 4.13373 3.37805 3.759 3.759C3.37751 4.13358 3.08216 4.58675 2.8935 5.087C2.67502 5.66993 2.55669 6.28561 2.5435 6.908C2.5085 7.7075 2.5 7.963 2.5 10C2.5 12.037 2.5085 12.2925 2.545 13.092C2.55819 13.7144 2.67652 14.3301 2.895 14.913C3.08366 15.4133 3.37901 15.8664 3.7605 16.241C4.13508 16.6225 4.58825 16.9178 5.0885 17.1065C5.67143 17.325 6.28711 17.4433 6.9095 17.4565C7.7095 17.493 7.9645 17.5015 10.0015 17.5015C12.0385 17.5015 12.294 17.493 13.0935 17.4565C13.7159 17.4433 14.3316 17.325 14.9145 17.1065C15.4125 16.9135 15.8648 16.6187 16.2425 16.241C16.6202 15.8633 16.915 15.411 17.108 14.913C17.3265 14.3301 17.4448 13.7144 17.458 13.092C17.4945 12.292 17.503 12.037 17.503 10C17.503 7.963 17.4945 7.7075 17.458 6.908C17.4448 6.28561 17.3265 5.66993 17.108 5.087C16.9193 4.58675 16.624 4.13358 16.2425 3.759C15.8679 3.37751 15.4148 3.08216 14.9145 2.8935C14.3316 2.67502 13.7159 2.55669 13.0935 2.5435C12.2925 2.5085 12.037 2.5 10 2.5Z" fill="#323842"/>
<path d="M9.9999 6.15039C9.23845 6.15039 8.49409 6.37619 7.86096 6.79923C7.22783 7.22228 6.73437 7.82356 6.44297 8.52706C6.15157 9.23055 6.07533 10.0047 6.22388 10.7515C6.37243 11.4983 6.73911 12.1843 7.27754 12.7228C7.81598 13.2612 8.50198 13.6279 9.24881 13.7764C9.99563 13.925 10.7697 13.8487 11.4732 13.5573C12.1767 13.2659 12.778 12.7725 13.2011 12.1393C13.6241 11.5062 13.8499 10.7618 13.8499 10.0004C13.8499 8.97931 13.4443 8.00004 12.7223 7.27803C12.0003 6.55601 11.021 6.15039 9.9999 6.15039ZM9.9999 12.5004C9.50545 12.5004 9.0221 12.3538 8.61098 12.0791C8.19986 11.8044 7.87942 11.4139 7.69021 10.9571C7.50099 10.5003 7.45148 9.99762 7.54794 9.51266C7.6444 9.02771 7.88251 8.58225 8.23214 8.23262C8.58177 7.88299 9.02723 7.64489 9.51218 7.54843C9.99713 7.45196 10.4998 7.50147 10.9566 7.69069C11.4134 7.87991 11.8039 8.20034 12.0786 8.61146C12.3533 9.02259 12.4999 9.50594 12.4999 10.0004C12.4999 10.6634 12.2365 11.2993 11.7677 11.7682C11.2988 12.237 10.6629 12.5004 9.9999 12.5004Z" fill="#323842"/>
<path d="M14.0035 6.89668C14.5006 6.89668 14.9035 6.49374 14.9035 5.99668C14.9035 5.49962 14.5006 5.09668 14.0035 5.09668C13.5065 5.09668 13.1035 5.49962 13.1035 5.99668C13.1035 6.49374 13.5065 6.89668 14.0035 6.89668Z" fill="#323842"/>
</svg>
