<svg width="20" height="20" viewBox="0 0 20 20" fill="none" xmlns="http://www.w3.org/2000/svg">
<path d="M18.0002 5.05C17.4002 5.3 16.8002 5.5 16.1002 5.55C16.8002 5.15 17.3002 4.5 17.5502 3.75C16.9002 4.15 16.2002 4.4 15.4502 4.55C14.8502 3.9 14.0002 3.5 13.1002 3.5C11.3002 3.5 9.8002 4.95 9.8002 6.8C9.8002 7.05 9.8502 7.3 9.9002 7.55C7.1502 7.4 4.7502 6.1 3.1002 4.1C2.8002 4.6 2.6502 5.15 2.6502 5.75C2.6502 6.9 3.2502 7.9 4.1002 8.5C3.5502 8.5 3.0502 8.35 2.6002 8.1V8.15C2.6002 9.75 3.7502 11.05 5.2502 11.35C4.9502 11.4 4.7002 11.45 4.4002 11.45C4.2002 11.45 4.0002 11.45 3.8002 11.4C4.2002 12.7 5.4502 13.65 6.8502 13.7C5.7502 14.6 4.3002 15.1 2.7502 15.1C2.5002 15.1 2.2002 15.1 1.9502 15.05C3.4502 15.95 5.2002 16.5 7.0502 16.5C13.1002 16.5 16.4002 11.5 16.4002 7.15C16.4002 7 16.4002 6.85 16.4002 6.75C17.0002 6.25 17.5502 5.7 18.0002 5.05Z" fill="#323842"/>
</svg>
