<svg width="20" height="20" viewBox="0 0 20 20" fill="none" xmlns="http://www.w3.org/2000/svg">
<path d="M4.16667 5.83301L11.6667 5.83301C12.1087 5.83301 12.5326 6.0086 12.8452 6.32116C13.1577 6.63372 13.3333 7.05765 13.3333 7.49967L13.3333 9.58301L16.6667 6.24967V14.583L13.3333 11.2497V13.333C13.3333 13.775 13.1577 14.199 12.8452 14.5115C12.5326 14.8241 12.1087 14.9997 11.6667 14.9997L4.16667 14.9997C3.72464 14.9997 3.30072 14.8241 2.98816 14.5115C2.67559 14.199 2.5 13.775 2.5 13.333L2.5 7.49967C2.5 7.05765 2.67559 6.63372 2.98816 6.32116C3.30072 6.0086 3.72464 5.83301 4.16667 5.83301ZM4.16667 6.66634C3.94565 6.66634 3.73369 6.75414 3.57741 6.91042C3.42113 7.0667 3.33333 7.27866 3.33333 7.49967L3.33333 13.333C3.33333 13.554 3.42113 13.766 3.57741 13.9223C3.73369 14.0785 3.94565 14.1663 4.16667 14.1663L11.6667 14.1663C11.8877 14.1663 12.0996 14.0785 12.2559 13.9223C12.4122 13.766 12.5 13.554 12.5 13.333L12.5 7.49967C12.5 7.27866 12.4122 7.0667 12.2559 6.91042C12.0996 6.75414 11.8877 6.66634 11.6667 6.66634L4.16667 6.66634ZM15.8333 8.25801L13.675 10.4163L15.8333 12.5747L15.8333 8.25801Z" fill="white"/>
</svg>
