<svg width="24" height="24" viewBox="0 0 24 24" fill="none" xmlns="http://www.w3.org/2000/svg">
<path d="M6.85112 17.7754L8.74369 19.2008C9.17569 19.5248 9.42941 20.0322 9.42941 20.5722V21.4294H2.57227V20.5722C2.57227 20.0322 2.82598 19.5248 3.25798 19.2008L5.15055 17.7754" stroke="#565E6C" stroke-width="2.05714" stroke-miterlimit="10"/>
<path d="M5.99944 18.0006C5.0523 18.0006 4.28516 17.2334 4.28516 16.2863L4.28516 15.4291C4.28516 14.482 5.0523 13.7148 5.99944 13.7148C6.94658 13.7148 7.71373 14.482 7.71373 15.4291V16.2863C7.71373 17.2334 6.94658 18.0006 5.99944 18.0006Z" stroke="#565E6C" stroke-width="2.05714" stroke-miterlimit="10" stroke-linecap="square"/>
<path d="M12.8511 6.63086L14.7437 8.05629C15.1757 8.38029 15.4294 8.88772 15.4294 9.42772V10.2849L8.57227 10.2849L8.57227 9.42772C8.57227 8.88772 8.82598 8.38029 9.25798 8.05629L11.1506 6.63086" stroke="#565E6C" stroke-width="2.05714" stroke-miterlimit="10"/>
<path d="M11.9994 6.85798C11.0523 6.85798 10.2852 6.09084 10.2852 5.14369V4.28655C10.2852 3.33941 11.0523 2.57227 11.9994 2.57227C12.9466 2.57227 13.7137 3.33941 13.7137 4.28655V5.14369C13.7137 6.09084 12.9466 6.85798 11.9994 6.85798Z" stroke="#565E6C" stroke-width="2.05714" stroke-miterlimit="10" stroke-linecap="square"/>
<path d="M18.8511 17.7754L20.7437 19.2008C21.1757 19.5248 21.4294 20.0322 21.4294 20.5722V21.4294H14.5723L14.5723 20.5722C14.5723 20.0322 14.826 19.5248 15.258 19.2008L17.1506 17.7754" stroke="#565E6C" stroke-width="2.05714" stroke-miterlimit="10"/>
<path d="M17.9994 18.0006C17.0523 18.0006 16.2852 17.2334 16.2852 16.2863V15.4291C16.2852 14.482 17.0523 13.7148 17.9994 13.7148C18.9466 13.7148 19.7137 14.482 19.7137 15.4291V16.2863C19.7137 17.2334 18.9466 18.0006 17.9994 18.0006Z" stroke="#565E6C" stroke-width="2.05714" stroke-miterlimit="10" stroke-linecap="square"/>
</svg>
