<svg width="36" height="36" viewBox="0 0 36 36" fill="none" xmlns="http://www.w3.org/2000/svg">
<rect width="36" height="36" rx="18" fill="#00BDD6"/>
<path d="M22.95 15.0256V14.7C22.95 11.9665 20.7335 9.75 18 9.75C15.2665 9.75 13.05 11.9665 13.05 14.7L13.05 15.0256C13.05 16.5909 12.2173 18.0462 10.8588 18.825C10.1537 19.2298 9.75 19.6984 9.75 20.2C9.75 21.7191 13.4438 22.95 18 22.95C22.5562 22.95 26.25 21.7191 26.25 20.2C26.25 19.6984 25.8463 19.2298 25.1412 18.825C23.7827 18.0473 22.95 16.5909 22.95 15.0256Z" stroke="white" stroke-width="1.1" stroke-miterlimit="10" stroke-linecap="round" stroke-linejoin="round"/>
<path d="M20.5214 24.5996C20.0968 25.5709 19.1277 26.2496 18.0002 26.2496C16.8727 26.2496 15.9047 25.5709 15.479 24.6007" stroke="white" stroke-width="1.1" stroke-miterlimit="10" stroke-linecap="round" stroke-linejoin="round"/>
</svg>
