<svg width="36" height="36" viewBox="0 0 36 36" fill="none" xmlns="http://www.w3.org/2000/svg">
<path d="M21.5996 4.5V11.7L28.7996 11.7" stroke="#171A1F" stroke-width="2.16" stroke-miterlimit="10"/>
<path d="M28.8002 15.3L28.8002 11.7L21.6002 4.5L7.2002 4.5L7.2002 15.3" stroke="#171A1F" stroke-width="2.16" stroke-miterlimit="10" stroke-linecap="square"/>
<path d="M7.2002 27.9004L7.2002 31.5004L28.8002 31.5004V27.9004" stroke="#171A1F" stroke-width="2.16" stroke-miterlimit="10" stroke-linecap="square"/>
<path d="M15.4287 20.7946C15.4287 21.3688 15.2595 21.8125 14.9211 22.1257C14.5827 22.4389 14.1012 22.5946 13.4775 22.5946H13.0869L13.0869 24.3001H11.6982L11.6982 19.1602H13.4775C14.1264 19.1602 14.6142 19.3015 14.94 19.5859C15.2658 19.8703 15.4287 20.2717 15.4287 20.7946ZM13.0869 21.4633H13.3398C13.5486 21.4633 13.7142 21.4048 13.8375 21.2878C13.9608 21.1708 14.022 21.0088 14.022 20.8027C14.022 20.4553 13.8303 20.2825 13.4451 20.2825H13.0869V21.4633Z" fill="#171A1F"/>
<path d="M20.6103 21.6208C20.6103 22.4785 20.3745 23.14 19.902 23.6035C19.4295 24.067 18.7662 24.3001 17.9103 24.3001H16.2471V19.1602H18.0264C18.8517 19.1602 19.4889 19.3708 19.9371 19.7929C20.3853 20.215 20.6103 20.8243 20.6103 21.6208ZM19.1694 21.6703C19.1694 21.1996 19.0758 20.8504 18.8895 20.6227C18.7032 20.395 18.4206 20.2816 18.0408 20.2816H17.6367V23.1607H17.9463C18.3684 23.1607 18.6771 23.0383 18.8742 22.7935C19.0713 22.5487 19.1694 22.1743 19.1694 21.6703Z" fill="#171A1F"/>
<path d="M22.8983 24.3001H21.5303V19.1602H24.5678V20.2744H22.8983V21.2554H24.4382V22.3696H22.8983V24.3001Z" fill="#171A1F"/>
<path d="M31.5 15.2998L4.5 15.2998L4.5 27.8998L31.5 27.8998L31.5 15.2998Z" stroke="#171A1F" stroke-width="2.16" stroke-miterlimit="10" stroke-linecap="square"/>
</svg>
