<svg width="30" height="30" viewBox="0 0 30 30" fill="none" xmlns="http://www.w3.org/2000/svg">
<path d="M18 3.75V9.75L24 9.75" stroke="#60AEFF" stroke-width="1.8" stroke-miterlimit="10"/>
<path d="M24 12.75L24 9.75L18 3.75L6 3.75L6 12.75" stroke="#60AEFF" stroke-width="1.8" stroke-miterlimit="10" stroke-linecap="square"/>
<path d="M6 23.25L6 26.25L24 26.25V23.25" stroke="#60AEFF" stroke-width="1.8" stroke-miterlimit="10" stroke-linecap="square"/>
<path d="M12.8568 17.3288C12.8568 17.8073 12.7158 18.177 12.4338 18.438C12.1518 18.699 11.7505 18.8288 11.2308 18.8288H10.9053L10.9053 20.25H9.74805L9.74805 15.9668H11.2308C11.7715 15.9668 12.178 16.0845 12.4495 16.3215C12.721 16.5585 12.8568 16.893 12.8568 17.3288ZM10.9053 17.886H11.116C11.29 17.886 11.428 17.8373 11.5308 17.7398C11.6335 17.6423 11.6845 17.5073 11.6845 17.3355C11.6845 17.046 11.5248 16.902 11.2038 16.902H10.9053V17.886Z" fill="#60AEFF"/>
<path d="M17.1751 18.0173C17.1751 18.732 16.9786 19.2833 16.5848 19.6695C16.1911 20.0558 15.6383 20.25 14.9251 20.25H13.5391L13.5391 15.9668H15.0218C15.7096 15.9668 16.2406 16.1423 16.6141 16.494C16.9876 16.8458 17.1751 17.3535 17.1751 18.0173ZM15.9743 18.0585C15.9743 17.6663 15.8963 17.3753 15.7411 17.1855C15.5858 16.9958 15.3503 16.9013 15.0338 16.9013H14.6971V19.3005H14.9551C15.3068 19.3005 15.5641 19.1985 15.7283 18.9945C15.8926 18.7905 15.9743 18.4785 15.9743 18.0585Z" fill="#60AEFF"/>
<path d="M19.0814 20.25H17.9414V15.9668H20.4727V16.8953H19.0814V17.7128H20.3647V18.6413H19.0814V20.25Z" fill="#60AEFF"/>
<path d="M26.25 12.75L3.75 12.75L3.75 23.25L26.25 23.25L26.25 12.75Z" stroke="#60AEFF" stroke-width="1.8" stroke-miterlimit="10" stroke-linecap="square"/>
</svg>
