<svg width="42" height="42" viewBox="0 0 42 42" fill="none" xmlns="http://www.w3.org/2000/svg">
<path d="M25.583 34.7769L34.7778 25.582C35.0704 25.2895 35.3025 24.9422 35.4608 24.56C35.6191 24.1778 35.7006 23.7681 35.7006 23.3544C35.7006 22.9407 35.6191 22.5311 35.4608 22.1489C35.3025 21.7666 35.0704 21.4194 34.7778 21.1269L19.9508 6.2998L6.30078 6.2998L6.30078 19.9498L21.1278 34.7769C21.4203 35.0694 21.7676 35.3015 22.1498 35.4598C22.532 35.6182 22.9417 35.6997 23.3554 35.6997C23.7691 35.6997 24.1788 35.6182 24.561 35.4598C24.9432 35.3015 25.2905 35.0694 25.583 34.7769Z" stroke="#171A1F" stroke-width="2.52" stroke-miterlimit="10" stroke-linecap="square"/>
<path d="M14.7008 17.8498C16.4405 17.8498 17.8508 16.4395 17.8508 14.6998C17.8508 12.9601 16.4405 11.5498 14.7008 11.5498C12.9611 11.5498 11.5508 12.9601 11.5508 14.6998C11.5508 16.4395 12.9611 17.8498 14.7008 17.8498Z" stroke="#171A1F" stroke-width="2.52" stroke-miterlimit="10" stroke-linecap="square"/>
</svg>
