<svg width="24" height="24" viewBox="0 0 24 24" fill="none" xmlns="http://www.w3.org/2000/svg">
<path d="M13.0653 20.9263L17.4976 16.494C17.6568 16.3348 17.7832 16.1458 17.8694 15.9378C17.9556 15.7297 17.9999 15.5068 17.9999 15.2816C17.9999 15.0564 17.9556 14.8334 17.8694 14.6254C17.7832 14.4174 17.6568 14.2283 17.4976 14.0691L9.42843 6L2.57129 6L2.57129 12.8571L10.6404 20.9263C10.7996 21.0855 10.9886 21.2119 11.1967 21.2981C11.4047 21.3843 11.6277 21.4286 11.8529 21.4286C12.078 21.4286 12.301 21.3843 12.509 21.2981C12.7171 21.2119 12.9061 21.0855 13.0653 20.9263Z" stroke="#565E6C" stroke-width="2.05714" stroke-miterlimit="10" stroke-linecap="square"/>
<path d="M19.7147 11.1437L11.1433 2.57227L4.28613 2.57227" stroke="#565E6C" stroke-width="2.05714" stroke-miterlimit="10" stroke-linecap="square"/>
<path d="M6.85686 12.0008C7.80364 12.0008 8.57115 11.2333 8.57115 10.2866C8.57115 9.33978 7.80364 8.57227 6.85686 8.57227C5.91009 8.57227 5.14258 9.33978 5.14258 10.2866C5.14258 11.2333 5.91009 12.0008 6.85686 12.0008Z" fill="#565E6C"/>
</svg>
