<svg width="16" height="16" viewBox="0 0 16 16" fill="none" xmlns="http://www.w3.org/2000/svg">
<g clip-path="url(#clip0_1_4450)">
<path d="M8.00065 14.6663C4.31865 14.6663 1.33398 11.6817 1.33398 7.99967C1.33398 4.31767 4.31865 1.33301 8.00065 1.33301C11.6827 1.33301 14.6673 4.31767 14.6673 7.99967C14.6673 11.6817 11.6827 14.6663 8.00065 14.6663ZM4.66732 8.66634C4.66732 9.5504 5.01851 10.3982 5.64363 11.0234C6.26875 11.6485 7.1166 11.9997 8.00065 11.9997C8.88471 11.9997 9.73255 11.6485 10.3577 11.0234C10.9828 10.3982 11.334 9.5504 11.334 8.66634L10.0007 8.66634C10.0007 9.19677 9.78994 9.70548 9.41487 10.0806C9.03979 10.4556 8.53108 10.6663 8.00065 10.6663C7.47022 10.6663 6.96151 10.4556 6.58644 10.0806C6.21136 9.70548 6.00065 9.19677 6.00065 8.66634L4.66732 8.66634ZM5.33398 7.33301C5.5992 7.33301 5.85356 7.22765 6.04109 7.04011C6.22863 6.85258 6.33398 6.59822 6.33398 6.33301C6.33398 6.06779 6.22863 5.81344 6.04109 5.6259C5.85356 5.43836 5.5992 5.33301 5.33398 5.33301C5.06877 5.33301 4.81441 5.43836 4.62688 5.6259C4.43934 5.81344 4.33398 6.06779 4.33398 6.33301C4.33398 6.59822 4.43934 6.85258 4.62688 7.04011C4.81441 7.22765 5.06877 7.33301 5.33398 7.33301ZM10.6673 7.33301C10.9325 7.33301 11.1869 7.22765 11.3744 7.04011C11.562 6.85258 11.6673 6.59822 11.6673 6.33301C11.6673 6.06779 11.562 5.81344 11.3744 5.6259C11.1869 5.43836 10.9325 5.33301 10.6673 5.33301C10.4021 5.33301 10.1477 5.43836 9.96021 5.6259C9.77267 5.81344 9.66732 6.06779 9.66732 6.33301C9.66732 6.59822 9.77267 6.85258 9.96021 7.04011C10.1477 7.22765 10.4021 7.33301 10.6673 7.33301Z" fill="#00BDD6"/>
</g>
<defs>
<clipPath id="clip0_1_4450">
<rect width="16" height="16" fill="white"/>
</clipPath>
</defs>
</svg>
