<svg width="24" height="24" viewBox="0 0 24 24" fill="none" xmlns="http://www.w3.org/2000/svg">
<path d="M11.9999 14.5716C13.4201 14.5716 14.5713 13.4203 14.5713 12.0001C14.5713 10.58 13.4201 9.42871 11.9999 9.42871C10.5797 9.42871 9.42847 10.58 9.42847 12.0001C9.42847 13.4203 10.5797 14.5716 11.9999 14.5716Z" stroke="#565E6C" stroke-width="2.05714" stroke-miterlimit="10" stroke-linecap="square"/>
<path d="M18.8572 11.9999C18.8562 11.5061 18.8022 11.0138 18.6961 10.5316L21.0224 8.77015L19.3081 5.801L16.6141 6.93757C15.8845 6.26875 15.0186 5.76605 14.0761 5.46415L13.7144 2.57129L10.2858 2.57129L9.92407 5.46415C8.98151 5.76605 8.11562 6.26875 7.38607 6.93757L4.69207 5.801L2.97778 8.77015L5.30407 10.5316C5.08926 11.4986 5.08926 12.5011 5.30407 13.4681L2.97778 15.2296L4.69207 18.1987L7.38607 17.0621C8.11562 17.731 8.98151 18.2337 9.92407 18.5356L10.2858 21.4284H13.7144L14.0761 18.5356C15.0186 18.2337 15.8845 17.731 16.6141 17.0621L19.3081 18.1987L21.0224 15.2296L18.6961 13.4681C18.8022 12.9859 18.8562 12.4936 18.8572 11.9999Z" stroke="#565E6C" stroke-width="2.05714" stroke-miterlimit="10" stroke-linecap="square"/>
</svg>
