<svg width="16" height="16" viewBox="0 0 16 16" fill="none" xmlns="http://www.w3.org/2000/svg">
<g clip-path="url(#clip0_1313_2412)">
<path d="M6.03604 0.833008C6.94737 0.833008 7.68271 0.833008 8.26071 0.911008C8.86071 0.991008 9.36604 1.16434 9.76737 1.56501C10.1167 1.91501 10.294 2.34501 10.3867 2.85034C10.4767 3.34167 10.494 3.94234 10.498 4.66367C10.4987 4.79628 10.4467 4.92374 10.3535 5.01801C10.2602 5.11228 10.1333 5.16563 10.0007 5.16634C9.8681 5.16705 9.74064 5.11505 9.64637 5.02178C9.5521 4.92851 9.49875 4.80162 9.49804 4.66901C9.49404 3.94034 9.47537 3.42367 9.40337 3.03101C9.33337 2.65367 9.22204 2.43434 9.06004 2.27234C8.87537 2.08767 8.61604 1.96767 8.12671 1.90167C7.62337 1.83434 6.95604 1.83301 5.99937 1.83301H5.33271C4.37537 1.83301 3.70804 1.83434 3.20471 1.90167C2.71537 1.96767 2.45671 2.08834 2.27137 2.27234C2.08737 2.45701 1.96737 2.71567 1.90137 3.20567C1.83337 3.70834 1.83271 4.37634 1.83271 5.33301V10.6663C1.83271 11.623 1.83337 12.2903 1.90137 12.7943C1.96737 13.2837 2.08737 13.5423 2.27204 13.727C2.45671 13.9117 2.71537 14.0317 3.20471 14.0977C3.70804 14.165 4.37537 14.1663 5.33271 14.1663H5.99937C6.95604 14.1663 7.62337 14.165 8.12737 14.0977C8.61604 14.0317 8.87537 13.911 9.06004 13.727C9.22204 13.5643 9.33337 13.3457 9.40337 12.9683C9.47537 12.5757 9.49404 12.059 9.49804 11.3303C9.49839 11.2647 9.51167 11.1997 9.53712 11.1392C9.56257 11.0787 9.59969 11.0238 9.64637 10.9776C9.69305 10.9314 9.74836 10.8949 9.80916 10.87C9.86996 10.8452 9.93505 10.8327 10.0007 10.833C10.0664 10.8334 10.1313 10.8466 10.1918 10.8721C10.2524 10.8975 10.3073 10.9347 10.3535 10.9813C10.3997 11.028 10.4362 11.0833 10.461 11.1441C10.4858 11.2049 10.4984 11.27 10.498 11.3357C10.494 12.057 10.4767 12.6577 10.3867 13.149C10.2934 13.6543 10.1167 14.0843 9.76671 14.4343C9.36604 14.8357 8.86004 15.0077 8.26004 15.089C7.68271 15.1663 6.94737 15.1663 6.03604 15.1663H5.29604C4.38404 15.1663 3.64937 15.1663 3.07137 15.089C2.47137 15.0077 1.96604 14.8357 1.56471 14.4343C1.16337 14.033 0.991372 13.5277 0.910039 12.9277C0.832705 12.3497 0.832706 11.6143 0.832706 10.703V5.29634C0.832706 4.38501 0.832705 3.64967 0.910039 3.07167C0.990705 2.47167 1.16337 1.96634 1.56471 1.56501C1.96604 1.16367 2.47137 0.991674 3.07137 0.911008C3.64937 0.833008 4.38471 0.833008 5.29604 0.833008H6.03604Z" fill="#6186A0"/>
<path d="M6.00093 7.5C5.86832 7.5 5.74115 7.55268 5.64738 7.64644C5.55361 7.74021 5.50093 7.86739 5.50093 8C5.50093 8.13261 5.55361 8.25978 5.64738 8.35355C5.74115 8.44732 5.86832 8.5 6.00093 8.5H13.3163L12.0089 9.62C11.9081 9.70628 11.8458 9.82907 11.8355 9.96134C11.8253 10.0936 11.868 10.2245 11.9543 10.3253C12.0405 10.4261 12.1633 10.4885 12.2956 10.4987C12.4279 10.509 12.5588 10.4663 12.6596 10.38L14.9929 8.38C15.0478 8.33306 15.0919 8.27478 15.1221 8.20919C15.1523 8.14359 15.168 8.07222 15.168 8C15.168 7.92777 15.1523 7.85641 15.1221 7.79081C15.0919 7.72521 15.0478 7.66694 14.9929 7.62L12.6596 5.62C12.6097 5.57727 12.5519 5.5448 12.4894 5.52442C12.427 5.50405 12.3611 5.49618 12.2956 5.50125C12.2301 5.50633 12.1663 5.52426 12.1077 5.55401C12.0491 5.58376 11.997 5.62476 11.9543 5.67466C11.9115 5.72457 11.8791 5.7824 11.8587 5.84485C11.8383 5.9073 11.8304 5.97316 11.8355 6.03865C11.8406 6.10415 11.8585 6.168 11.8883 6.22657C11.918 6.28514 11.959 6.33727 12.0089 6.38L13.3156 7.5H6.00093Z" fill="#6186A0"/>
</g>
<defs>
<clipPath id="clip0_1313_2412">
<rect width="16" height="16" fill="white" transform="matrix(-1 0 0 1 16 0)"/>
</clipPath>
</defs>
</svg>
