<svg width="58" height="58" viewBox="0 0 58 58" fill="none" xmlns="http://www.w3.org/2000/svg">
<g filter="url(#filter0_dd_1221_1072)">
<rect x="9" y="5" width="40" height="40" rx="20" fill="#F2BE18"/>
<path d="M35.5 20.5L22.5 20.5C21.9477 20.5 21.5 20.9477 21.5 21.5L21.5 30.5C21.5 31.0523 21.9477 31.5 22.5 31.5L35.5 31.5C36.0523 31.5 36.5 31.0523 36.5 30.5V21.5C36.5 20.9477 36.0523 20.5 35.5 20.5Z" stroke="white" stroke-linecap="round" stroke-linejoin="round"/>
<path d="M29 28.5C30.3807 28.5 31.5 27.3807 31.5 26C31.5 24.6193 30.3807 23.5 29 23.5C27.6193 23.5 26.5 24.6193 26.5 26C26.5 27.3807 27.6193 28.5 29 28.5Z" stroke="white" stroke-linecap="round" stroke-linejoin="round"/>
<path d="M23.5 17.5L34.5 17.5" stroke="white" stroke-linecap="round" stroke-linejoin="round"/>
</g>
<defs>
<filter id="filter0_dd_1221_1072" x="0" y="0" width="58" height="58" filterUnits="userSpaceOnUse" color-interpolation-filters="sRGB">
<feFlood flood-opacity="0" result="BackgroundImageFix"/>
<feColorMatrix in="SourceAlpha" type="matrix" values="0 0 0 0 0 0 0 0 0 0 0 0 0 0 0 0 0 0 127 0" result="hardAlpha"/>
<feOffset dy="4"/>
<feGaussianBlur stdDeviation="4.5"/>
<feColorMatrix type="matrix" values="0 0 0 0 0.94902 0 0 0 0 0.745098 0 0 0 0 0.0941176 0 0 0 0.11 0"/>
<feBlend mode="normal" in2="BackgroundImageFix" result="effect1_dropShadow_1221_1072"/>
<feColorMatrix in="SourceAlpha" type="matrix" values="0 0 0 0 0 0 0 0 0 0 0 0 0 0 0 0 0 0 127 0" result="hardAlpha"/>
<feOffset/>
<feGaussianBlur stdDeviation="1"/>
<feColorMatrix type="matrix" values="0 0 0 0 0.94902 0 0 0 0 0.745098 0 0 0 0 0.0941176 0 0 0 0.12 0"/>
<feBlend mode="normal" in2="effect1_dropShadow_1221_1072" result="effect2_dropShadow_1221_1072"/>
<feBlend mode="normal" in="SourceGraphic" in2="effect2_dropShadow_1221_1072" result="shape"/>
</filter>
</defs>
</svg>
