<svg width="24" height="24" viewBox="0 0 24 24" fill="none" xmlns="http://www.w3.org/2000/svg">
<path d="M5.14275 6.85728C6.08953 6.85728 6.85704 6.08977 6.85704 5.143C6.85704 4.19622 6.08953 3.42871 5.14275 3.42871C4.19598 3.42871 3.42847 4.19622 3.42847 5.143C3.42847 6.08977 4.19598 6.85728 5.14275 6.85728Z" stroke="#565E6C" stroke-width="2.05714" stroke-miterlimit="10" stroke-linecap="square"/>
<path d="M5.14275 13.7147C6.08953 13.7147 6.85704 12.9472 6.85704 12.0004C6.85704 11.0536 6.08953 10.2861 5.14275 10.2861C4.19598 10.2861 3.42847 11.0536 3.42847 12.0004C3.42847 12.9472 4.19598 13.7147 5.14275 13.7147Z" stroke="#565E6C" stroke-width="2.05714" stroke-miterlimit="10" stroke-linecap="square"/>
<path d="M5.14275 20.5711C6.08953 20.5711 6.85704 19.8036 6.85704 18.8569C6.85704 17.9101 6.08953 17.1426 5.14275 17.1426C4.19598 17.1426 3.42847 17.9101 3.42847 18.8569C3.42847 19.8036 4.19598 20.5711 5.14275 20.5711Z" stroke="#565E6C" stroke-width="2.05714" stroke-miterlimit="10" stroke-linecap="square"/>
<path d="M20.5714 3.42871L10.2856 3.42871V6.85728L20.5714 6.85728V3.42871Z" stroke="#565E6C" stroke-width="2.05714" stroke-miterlimit="10" stroke-linecap="square"/>
<path d="M20.5714 10.2861L10.2856 10.2861V13.7147L20.5714 13.7147V10.2861Z" stroke="#565E6C" stroke-width="2.05714" stroke-miterlimit="10" stroke-linecap="square"/>
<path d="M20.5714 17.1426L10.2856 17.1426V20.5711L20.5714 20.5711V17.1426Z" stroke="#565E6C" stroke-width="2.05714" stroke-miterlimit="10" stroke-linecap="square"/>
</svg>
