<svg width="24" height="24" viewBox="0 0 24 24" fill="none" xmlns="http://www.w3.org/2000/svg">
<path d="M6.85015 17.7754L8.74272 19.2008C9.17472 19.5248 9.42843 20.0322 9.42843 20.5722V21.4294H2.57129V20.5722C2.57129 20.0322 2.825 19.5248 3.257 19.2008L5.14957 17.7754" stroke="#565E6C" stroke-width="2.05714" stroke-miterlimit="10"/>
<path d="M6.00042 18.0006C5.05328 18.0006 4.28613 17.2334 4.28613 16.2863L4.28613 15.4291C4.28613 14.482 5.05328 13.7148 6.00042 13.7148C6.94756 13.7148 7.7147 14.482 7.7147 15.4291V16.2863C7.7147 17.2334 6.94756 18.0006 6.00042 18.0006Z" stroke="#565E6C" stroke-width="2.05714" stroke-miterlimit="10" stroke-linecap="square"/>
<path d="M12.8501 6.63086L14.7427 8.05629C15.1747 8.38029 15.4284 8.88772 15.4284 9.42772V10.2849L8.57129 10.2849L8.57129 9.42772C8.57129 8.88772 8.825 8.38029 9.257 8.05629L11.1496 6.63086" stroke="#565E6C" stroke-width="2.05714" stroke-miterlimit="10"/>
<path d="M12.0004 6.85798C11.0533 6.85798 10.2861 6.09084 10.2861 5.14369V4.28655C10.2861 3.33941 11.0533 2.57227 12.0004 2.57227C12.9476 2.57227 13.7147 3.33941 13.7147 4.28655V5.14369C13.7147 6.09084 12.9476 6.85798 12.0004 6.85798Z" stroke="#565E6C" stroke-width="2.05714" stroke-miterlimit="10" stroke-linecap="square"/>
<path d="M18.8501 17.7754L20.7427 19.2008C21.1747 19.5248 21.4284 20.0322 21.4284 20.5722V21.4294H14.5713L14.5713 20.5722C14.5713 20.0322 14.825 19.5248 15.257 19.2008L17.1496 17.7754" stroke="#565E6C" stroke-width="2.05714" stroke-miterlimit="10"/>
<path d="M18.0004 18.0006C17.0533 18.0006 16.2861 17.2334 16.2861 16.2863V15.4291C16.2861 14.482 17.0533 13.7148 18.0004 13.7148C18.9476 13.7148 19.7147 14.482 19.7147 15.4291V16.2863C19.7147 17.2334 18.9476 18.0006 18.0004 18.0006Z" stroke="#565E6C" stroke-width="2.05714" stroke-miterlimit="10" stroke-linecap="square"/>
</svg>
