<svg width="25" height="10" viewBox="0 0 25 10" fill="none" xmlns="http://www.w3.org/2000/svg">
<path d="M5.80149 0.272727H7.64666L7.64666 5.94034C7.64666 6.5767 7.49467 7.13352 7.1907 7.6108C6.88956 8.08807 6.46768 8.46023 5.92507 8.72727C5.38246 8.99148 4.75036 9.12358 4.02876 9.12358C3.30433 9.12358 2.67081 8.99148 2.1282 8.72727C1.58558 8.46023 1.16371 8.08807 0.862571 7.6108C0.561435 7.13352 0.410866 6.5767 0.410866 5.94034L0.410866 0.272727L2.25604 0.272727L2.25604 5.78267C2.25604 6.11506 2.32848 6.41051 2.47337 6.66903C2.62109 6.92756 2.82848 7.13068 3.09553 7.27841C3.36257 7.42614 3.67365 7.5 4.02876 7.5C4.38672 7.5 4.6978 7.42614 4.962 7.27841C5.22905 7.13068 5.43501 6.92756 5.5799 6.66903C5.72763 6.41051 5.80149 6.11506 5.80149 5.78267L5.80149 0.272727ZM13.8991 2.78267C13.8651 2.43892 13.7188 2.17187 13.4602 1.98153C13.2017 1.79119 12.8509 1.69602 12.4077 1.69602C12.1065 1.69602 11.8523 1.73864 11.6449 1.82386C11.4375 1.90625 11.2784 2.02131 11.1676 2.16903C11.0597 2.31676 11.0057 2.48438 11.0057 2.67188C11 2.82813 11.0327 2.96449 11.1037 3.08097C11.1776 3.19744 11.2784 3.2983 11.4062 3.38352C11.5341 3.46591 11.6818 3.53835 11.8494 3.60085C12.017 3.66051 12.196 3.71165 12.3864 3.75426L13.1705 3.94176C13.5511 4.02699 13.9006 4.14062 14.2187 4.28267C14.5369 4.42472 14.8125 4.59943 15.0455 4.80682C15.2784 5.0142 15.4588 5.25852 15.5866 5.53977C15.7173 5.82102 15.7841 6.14347 15.7869 6.5071C15.7841 7.04119 15.6477 7.50426 15.3778 7.89631C15.1108 8.28551 14.7244 8.58807 14.2187 8.80398C13.7159 9.01705 13.1094 9.12358 12.3991 9.12358C11.6946 9.12358 11.081 9.01563 10.5582 8.79972C10.0384 8.58381 9.6321 8.2642 9.33949 7.84091C9.04972 7.41477 8.89773 6.88778 8.88352 6.25994L10.669 6.25994C10.6889 6.55256 10.7727 6.79687 10.9205 6.9929C11.071 7.18608 11.2713 7.33239 11.5213 7.43182C11.7741 7.52841 12.0597 7.5767 12.3778 7.5767C12.6903 7.5767 12.9616 7.53125 13.1918 7.44034C13.4247 7.34943 13.6051 7.22301 13.733 7.06108C13.8608 6.89915 13.9247 6.71307 13.9247 6.50284C13.9247 6.30682 13.8665 6.14205 13.75 6.00852C13.6364 5.875 13.4688 5.76136 13.2472 5.66761C13.0284 5.57386 12.7599 5.48864 12.4418 5.41193L11.4915 5.1733C10.7557 4.99432 10.1747 4.71449 9.74858 4.33381C9.32244 3.95312 9.1108 3.44034 9.11364 2.79545C9.1108 2.26705 9.25142 1.8054 9.53551 1.41051C9.82244 1.01563 10.2159 0.707386 10.7159 0.485795C11.2159 0.264204 11.7841 0.153409 12.4205 0.153409C13.0682 0.153409 13.6335 0.264204 14.1165 0.485795C14.6023 0.707386 14.9801 1.01563 15.25 1.41051C15.5199 1.8054 15.6591 2.26278 15.6676 2.78267L13.8991 2.78267ZM20.1218 9L17.0281 9L17.0281 0.272727L20.1474 0.272727C21.0252 0.272727 21.7809 0.447443 22.4144 0.796875C23.0479 1.14347 23.5352 1.64205 23.8761 2.29261C24.2198 2.94318 24.3917 3.72159 24.3917 4.62784C24.3917 5.53693 24.2198 6.31818 23.8761 6.97159C23.5352 7.625 23.0451 8.12642 22.4059 8.47585C21.7695 8.82528 21.0082 9 20.1218 9ZM18.8732 7.41903H20.0451C20.5906 7.41903 21.0494 7.32244 21.4215 7.12926C21.7965 6.93324 22.0778 6.63068 22.2653 6.22159C22.4556 5.80966 22.5508 5.27841 22.5508 4.62784C22.5508 3.98295 22.4556 3.45597 22.2653 3.04688C22.0778 2.63778 21.7979 2.33665 21.4258 2.14347C21.0536 1.95028 20.5948 1.85369 20.0494 1.85369L18.8732 1.85369L18.8732 7.41903Z" fill="#171A1F"/>
</svg>
