<svg width="12" height="12" viewBox="0 0 12 12" fill="none" xmlns="http://www.w3.org/2000/svg">
<path d="M1.2207 10.8002L1.89579 8.33511C1.47938 7.61373 1.26026 6.79532 1.2606 5.95691C1.26166 3.33405 3.39633 1.2002 6.01918 1.2002C7.29213 1.2007 8.48691 1.69614 9.38531 2.59529C10.2837 3.49444 10.7782 4.68964 10.7777 5.96071C10.7767 8.58358 8.64182 10.7177 6.01925 10.7177H6.01729C5.22086 10.7174 4.43832 10.5177 3.7433 10.1387L1.2207 10.8002ZM3.86016 9.27746L4.00459 9.36316C4.61183 9.72342 5.30792 9.914 6.01761 9.91428H6.01923C8.19918 9.91428 9.97343 8.14058 9.97432 5.96041C9.97472 4.90393 9.56372 3.91053 8.81699 3.16318C8.07025 2.41584 7.0772 2.00402 6.0208 2.00362C3.83918 2.00362 2.06491 3.7772 2.06403 5.95722C2.06373 6.70428 2.27284 7.43189 2.66874 8.06141L2.7628 8.21099L2.36323 9.67002L3.86016 9.27746Z" fill="white"/>
<path fill-rule="evenodd" clip-rule="evenodd" d="M4.83016 3.968C4.73365 3.73622 4.63562 3.76757 4.56264 3.76394C4.49337 3.76049 4.41402 3.75977 4.33476 3.75977C4.2555 3.75977 4.12669 3.78951 4.0177 3.9085C3.90871 4.02749 3.60156 4.31506 3.60156 4.9001C3.60156 5.48514 4.0276 6.05034 4.08706 6.12967C4.1465 6.20901 4.92547 7.4096 6.1182 7.92446C6.40187 8.04692 6.62335 8.12003 6.79601 8.17484C7.08086 8.26529 7.34006 8.25253 7.54492 8.22193C7.77336 8.18781 8.24838 7.93438 8.34747 7.65673C8.44654 7.37908 8.44654 7.1411 8.41682 7.09152C8.38711 7.04195 8.30783 7.01219 8.18894 6.95269C8.07004 6.8932 7.48548 6.60563 7.37648 6.56597C7.26749 6.52631 7.18824 6.50648 7.10897 6.62547C7.02971 6.74445 6.80185 7.01219 6.73249 7.09151C6.66314 7.17084 6.59378 7.18076 6.47488 7.12126C6.35598 7.06177 5.97287 6.93625 5.51872 6.53131C5.16528 6.21615 4.92663 5.82688 4.85728 5.70788C4.78792 5.58889 4.8499 5.52455 4.90942 5.4653C4.9629 5.41205 5.02831 5.32648 5.08777 5.25707C5.14721 5.18766 5.16703 5.13808 5.20666 5.05875C5.24629 4.97942 5.22648 4.91001 5.19675 4.85051C5.16703 4.79102 4.92924 4.20597 4.83016 3.968Z" fill="white"/>
</svg>
